<?xml version="1.0" encoding="UTF-8" standalone="no"?>
<!-- Created with Inkscape (http://www.inkscape.org/) -->

<svg
   xmlns:dc="http://purl.org/dc/elements/1.1/"
   xmlns:cc="http://creativecommons.org/ns#"
   xmlns:rdf="http://www.w3.org/1999/02/22-rdf-syntax-ns#"
   xmlns:svg="http://www.w3.org/2000/svg"
   xmlns="http://www.w3.org/2000/svg"
   xmlns:sodipodi="http://sodipodi.sourceforge.net/DTD/sodipodi-0.dtd"
   xmlns:inkscape="http://www.inkscape.org/namespaces/inkscape"
   width="141.72917mm"
   height="173.47916mm"
   viewBox="0 0 141.72917 173.47916"
   version="1.1"
   id="svg972"
   inkscape:version="0.92.4 (5da689c313, 2019-01-14)"
   sodipodi:docname="exclNonImg.svg">
  <defs
     id="defs966" />
  <sodipodi:namedview
     id="base"
     pagecolor="#ffffff"
     bordercolor="#666666"
     borderopacity="1.0"
     inkscape:pageopacity="0.0"
     inkscape:pageshadow="2"
     inkscape:zoom="0.5"
     inkscape:cx="437.13441"
     inkscape:cy="522.84661"
     inkscape:document-units="mm"
     inkscape:current-layer="layer1"
     showgrid="false"
     inkscape:window-width="1779"
     inkscape:window-height="1057"
     inkscape:window-x="133"
     inkscape:window-y="-8"
     inkscape:window-maximized="1"
     fit-margin-top="0"
     fit-margin-left="0"
     fit-margin-right="0"
     fit-margin-bottom="0">
    <inkscape:grid
       type="xygrid"
       id="grid1517"
       originx="-7.1874999"
       originy="-120.95835" />
  </sodipodi:namedview>
  <metadata
     id="metadata969">
    <rdf:RDF>
      <cc:Work
         rdf:about="">
        <dc:format>image/svg+xml</dc:format>
        <dc:type
           rdf:resource="http://purl.org/dc/dcmitype/StillImage" />
        <dc:title></dc:title>
      </cc:Work>
    </rdf:RDF>
  </metadata>
  <g
     inkscape:label="Ebene 1"
     inkscape:groupmode="layer"
     id="layer1"
     transform="translate(-7.1875,-2.5625)">
    <rect
       style="opacity:1;vector-effect:none;fill:#ffccaa;fill-opacity:1;fill-rule:nonzero;stroke:#000000;stroke-width:1.5;stroke-linecap:square;stroke-linejoin:miter;stroke-miterlimit:4;stroke-dasharray:none;stroke-dashoffset:0;stroke-opacity:1;paint-order:stroke fill markers"
       id="rect1519"
       width="140.22917"
       height="55.5625"
       x="7.9375"
       y="3.3125" />
    <rect
       y="61.520832"
       x="7.9375"
       height="55.5625"
       width="140.22917"
       id="rect1521"
       style="opacity:1;vector-effect:none;fill:#cccccc;fill-opacity:1;fill-rule:nonzero;stroke:#000000;stroke-width:1.5;stroke-linecap:square;stroke-linejoin:miter;stroke-miterlimit:4;stroke-dasharray:none;stroke-dashoffset:0;stroke-opacity:1;paint-order:stroke fill markers" />
    <rect
       style="opacity:1;vector-effect:none;fill:#ffccaa;fill-opacity:1;fill-rule:nonzero;stroke:#000000;stroke-width:1.5;stroke-linecap:square;stroke-linejoin:miter;stroke-miterlimit:4;stroke-dasharray:none;stroke-dashoffset:0;stroke-opacity:1;paint-order:stroke fill markers"
       id="rect1523"
       width="140.22917"
       height="55.5625"
       x="7.9375"
       y="119.72916" />
    <path
       style="fill:none;fill-rule:evenodd;stroke:#000000;stroke-width:1.32291663;stroke-linecap:butt;stroke-linejoin:miter;stroke-miterlimit:4;stroke-dasharray:none;stroke-opacity:1"
       d="M 50.270833,13.895833 H 136.78958"
       id="path1687"
       inkscape:connector-curvature="0" />
    <path
       inkscape:connector-curvature="0"
       id="path1689"
       d="M 50.270833,21.833333 H 136.78958"
       style="fill:none;fill-rule:evenodd;stroke:#000000;stroke-width:1.32291663;stroke-linecap:butt;stroke-linejoin:miter;stroke-miterlimit:4;stroke-dasharray:none;stroke-opacity:1" />
    <path
       style="fill:none;fill-rule:evenodd;stroke:#000000;stroke-width:1.32291663;stroke-linecap:butt;stroke-linejoin:miter;stroke-miterlimit:4;stroke-dasharray:none;stroke-opacity:1"
       d="M 50.270833,29.770833 H 136.78958"
       id="path1691"
       inkscape:connector-curvature="0" />
    <path
       inkscape:connector-curvature="0"
       id="path1693"
       d="M 50.270833,37.708333 H 136.78958"
       style="fill:none;fill-rule:evenodd;stroke:#000000;stroke-width:1.32291663;stroke-linecap:butt;stroke-linejoin:miter;stroke-miterlimit:4;stroke-dasharray:none;stroke-opacity:1" />
    <path
       style="fill:none;fill-rule:evenodd;stroke:#000000;stroke-width:1.32291663;stroke-linecap:butt;stroke-linejoin:miter;stroke-miterlimit:4;stroke-dasharray:none;stroke-opacity:1"
       d="M 50.270833,45.645833 H 136.78958"
       id="path1695"
       inkscape:connector-curvature="0" />
    <path
       inkscape:connector-curvature="0"
       id="path1697"
       d="M 21.166667,74.75 H 137.58333"
       style="fill:#666666;fill-rule:evenodd;stroke:#999999;stroke-width:1.32291663;stroke-linecap:butt;stroke-linejoin:miter;stroke-miterlimit:4;stroke-dasharray:none;stroke-opacity:1"
       sodipodi:nodetypes="cc" />
    <path
       style="fill:#666666;fill-rule:evenodd;stroke:#999999;stroke-width:1.32291663;stroke-linecap:butt;stroke-linejoin:miter;stroke-miterlimit:4;stroke-dasharray:none;stroke-opacity:1"
       d="M 21.166667,82.6875 H 137.58333"
       id="path1699"
       inkscape:connector-curvature="0"
       sodipodi:nodetypes="cc" />
    <path
       inkscape:connector-curvature="0"
       id="path1701"
       d="M 21.166667,90.625 H 137.58333"
       style="fill:#666666;fill-rule:evenodd;stroke:#999999;stroke-width:1.32291663;stroke-linecap:butt;stroke-linejoin:miter;stroke-miterlimit:4;stroke-dasharray:none;stroke-opacity:1"
       sodipodi:nodetypes="cc" />
    <path
       style="fill:#666666;fill-rule:evenodd;stroke:#999999;stroke-width:1.32291663;stroke-linecap:butt;stroke-linejoin:miter;stroke-miterlimit:4;stroke-dasharray:none;stroke-opacity:1"
       d="M 21.166667,98.5625 H 137.58333"
       id="path1703"
       inkscape:connector-curvature="0"
       sodipodi:nodetypes="cc" />
    <path
       inkscape:connector-curvature="0"
       id="path1705"
       d="M 21.166667,106.5 H 137.58333"
       style="fill:#666666;fill-rule:evenodd;stroke:#999999;stroke-width:1.32291663;stroke-linecap:butt;stroke-linejoin:miter;stroke-miterlimit:4;stroke-dasharray:none;stroke-opacity:1"
       sodipodi:nodetypes="cc" />
    <path
       inkscape:connector-curvature="0"
       id="path1707"
       d="M 50.270833,130.3125 H 136.78958"
       style="fill:none;fill-rule:evenodd;stroke:#000000;stroke-width:1.32291663;stroke-linecap:butt;stroke-linejoin:miter;stroke-miterlimit:4;stroke-dasharray:none;stroke-opacity:1" />
    <path
       style="fill:none;fill-rule:evenodd;stroke:#000000;stroke-width:1.32291663;stroke-linecap:butt;stroke-linejoin:miter;stroke-miterlimit:4;stroke-dasharray:none;stroke-opacity:1"
       d="M 50.270833,138.25 H 136.78958"
       id="path1709"
       inkscape:connector-curvature="0" />
    <path
       inkscape:connector-curvature="0"
       id="path1711"
       d="M 50.270833,146.1875 H 136.78958"
       style="fill:none;fill-rule:evenodd;stroke:#000000;stroke-width:1.32291663;stroke-linecap:butt;stroke-linejoin:miter;stroke-miterlimit:4;stroke-dasharray:none;stroke-opacity:1" />
    <path
       style="fill:none;fill-rule:evenodd;stroke:#000000;stroke-width:1.32291663;stroke-linecap:butt;stroke-linejoin:miter;stroke-miterlimit:4;stroke-dasharray:none;stroke-opacity:1"
       d="M 50.270833,154.125 H 136.78958"
       id="path1713"
       inkscape:connector-curvature="0" />
    <path
       inkscape:connector-curvature="0"
       id="path1715"
       d="M 50.270833,162.0625 H 136.78958"
       style="fill:none;fill-rule:evenodd;stroke:#000000;stroke-width:1.32291663;stroke-linecap:butt;stroke-linejoin:miter;stroke-miterlimit:4;stroke-dasharray:none;stroke-opacity:1" />
    <g
       id="g1734">
      <rect
         y="8.604166"
         x="13.229165"
         height="12.573681"
         width="26.66081"
         id="rect1567"
         style="opacity:1;vector-effect:none;fill:#00ffff;fill-opacity:1;fill-rule:nonzero;stroke:#ffff00;stroke-width:0.13229166;stroke-linecap:square;stroke-linejoin:miter;stroke-miterlimit:4;stroke-dasharray:none;stroke-dashoffset:0;stroke-opacity:1;paint-order:stroke fill markers" />
      <path
         inkscape:connector-curvature="0"
         id="path1543"
         d="m 13.229167,20.510416 c 0.125992,-0.283482 0.251984,-0.566964 0.377976,-0.850446 0.0315,0 0.06632,0.01409 0.09449,0 0.03984,-0.01992 0.07457,-0.05465 0.09449,-0.09449 0.01409,-0.02817 -0.01409,-0.06632 0,-0.0945 0.01992,-0.03984 0.063,-0.06299 0.09449,-0.09449 0.0315,-0.0315 0.05465,-0.07457 0.09449,-0.09449 0.05635,-0.02817 0.144443,0.04454 0.188988,0 0.195512,-0.195511 -0.298768,0.0076 0.09449,-0.188988 0.05635,-0.02817 0.132643,0.02817 0.188988,0 0.07968,-0.03984 0.109304,-0.149146 0.188988,-0.188988 0.02817,-0.01409 0.06632,0.01409 0.09449,0 0.07968,-0.03984 0.109304,-0.149146 0.188988,-0.188988 0.02443,-0.01222 0.499987,0 0.566965,0 0.440972,0 0.881944,0 1.322916,0 0.976439,0 1.952877,0 2.929316,0 0.04455,0 0.468187,-0.0043 0.47247,0 0.195512,0.195512 -0.298768,-0.0076 0.09449,0.188988 0.02876,0.01438 0.240926,0 0.283482,0 0.188988,0 0.377976,0 0.566964,0 0.063,0 0.125993,0 0.188989,0 0.0315,0 0.06461,-0.01 0.09449,0 0.06682,0.02227 0.130385,0.05543 0.188988,0.09449 0.03706,0.02471 0.05128,0.08369 0.09449,0.09449 0.12223,0.03056 0.251984,0 0.377976,0 0.283482,0 0.566964,0 0.850446,0 0.0315,0 0.063,0 0.09449,0 0.0315,0 0.06632,-0.01409 0.09449,0 0.03984,0.01992 0.05465,0.07457 0.09449,0.09449 0.02817,0.01409 0.063,0 0.09449,0 0.0315,0 0.063,0 0.09449,0 0.15749,0 0.31498,0 0.47247,0 0.188988,0 0.377976,0 0.566964,0 0.063,0 0.125992,0 0.188988,0 0.0315,0 0.06632,-0.01409 0.09449,0 0.03984,0.01992 0.05465,0.07457 0.09449,0.09449 0.02118,0.01059 0.355522,0 0.377976,0 0.188989,0 0.377977,0 0.566965,0 0.04256,0 0.254724,-0.01438 0.283482,0 0.07968,0.03984 0.109304,0.149146 0.188988,0.188988 0.02817,0.01409 0.063,0 0.09449,0 0.0315,0 0.063,0 0.09449,0 0.157491,0 0.314981,0 0.472469,0 0.440973,0 0.881946,0 1.322917,0 1.165428,0 2.330855,0 3.496281,0 0.15749,0 0.314981,0 0.472469,0 0.0315,0 0.063,0 0.0945,0 0.0315,0 0.06632,-0.01409 0.09449,0 0.03984,0.01992 0.05465,0.07457 0.09449,0.0945 0.03444,0.01722 0.418023,0 0.472472,0 0.314978,0 0.62996,0 0.944941,0 1.007935,0 2.015871,0 3.023809,0 0.44097,0 0.881943,0 1.322917,0 0.15749,0 0.314978,0 0.472469,0 0.0315,0 0.063,0 0.09449,0 0.0315,0 0.06632,0.01409 0.0945,0 0.393261,-0.196631 -0.101018,0.0065 0.09449,-0.188989 0.02228,-0.02227 0.06421,0.0087 0.09449,0 0.191548,-0.05473 0.377976,-0.125991 0.566965,-0.188987 l 8.1e-5,4e-6 V 32.416667 L 13.229167,31.09375 Z"
         style="fill:#0000ff;fill-rule:evenodd;stroke:#000000;stroke-width:0.13229167;stroke-linecap:butt;stroke-linejoin:miter;stroke-miterlimit:4;stroke-dasharray:none;stroke-opacity:1" />
      <path
         sodipodi:nodetypes="ccccccscccccccccccccccccccccccsccscccccccssccccccsccccccccccccccccccscccccsccccccccsccccccccccccccccccscccccsccccccsccsccscc"
         inkscape:connector-curvature="0"
         id="path1545"
         d="m 13.229167,20.510416 c 0.09449,0.188988 0.188988,0.377976 0.283482,0.566964 0,0.0315 -0.02817,0.08041 0,0.09449 0.104062,0.05203 0.267174,-0.03693 0.377976,0 0.06682,0.02227 0.139185,0.04469 0.188988,0.09449 0.02227,0.02227 -0.02988,0.08453 0,0.09449 0.04841,0.01614 0.665192,0 0.755952,0 0.0315,0 0.06461,-0.01 0.09449,0 0.133635,0.04454 0.244342,0.144444 0.377977,0.188989 0.06655,0.02218 0.352617,-0.02536 0.377976,0 0.02227,0.02227 -0.02817,0.08041 0,0.09449 0.253836,0.126918 0.12523,-0.158253 0.377976,0.09449 0.0315,0.0315 0.05465,0.07457 0.09449,0.09449 0.05635,0.02817 0.132643,-0.02817 0.188988,0 0.03984,0.01992 0.05886,0.06777 0.09449,0.09449 0.09085,0.06814 0.181904,0.138199 0.283482,0.188988 0.08909,0.04454 0.194393,0.04995 0.283482,0.09449 0.03984,0.01992 0.05223,0.08041 0.09449,0.09449 0.08505,0.02835 0.198438,-0.02835 0.283483,0 0.684459,0.228153 -0.14898,-0.02724 0.283482,0.188988 0.05634,0.02817 0.132642,-0.02817 0.188988,0 0.07968,0.03984 0.109304,0.149146 0.188988,0.188988 0.06527,0.03263 0.439301,-0.03317 0.47247,0 0.02227,0.02227 -0.02227,0.07222 0,0.09449 0.04454,0.04455 0.132643,-0.02817 0.188988,0 0.03984,0.01992 0.063,0.063 0.09449,0.09449 0.121638,0.121637 0.2051,0.225857 0.377976,0.283482 0.05976,0.01992 0.132643,-0.02817 0.188989,0 0.07218,0.03609 0.219495,0.262154 0.283482,0.283482 0.05976,0.01992 0.132642,-0.02817 0.188988,0 0.02817,0.01409 -0.01409,0.06632 0,0.0945 0.01992,0.03984 0.05465,0.07457 0.09449,0.09449 0.05635,0.02817 0.132643,-0.02817 0.188988,0 0.03984,0.01992 0.063,0.063 0.09449,0.09449 0.0315,0.0315 0.07457,0.05465 0.09449,0.09449 0.01409,0.02817 -0.02227,0.07222 0,0.0945 0.04454,0.04454 0.132643,-0.02817 0.188988,0 0.113393,0.0567 0.170089,0.226785 0.283482,0.283482 0.05635,0.02817 0.144444,-0.04454 0.188988,0 0.0498,0.0498 0.05543,0.130385 0.09449,0.188988 0.04942,0.07413 0.149146,0.109304 0.188988,0.188988 0.01409,0.02817 -0.02227,0.07222 0,0.09449 0.02227,0.02227 0.07222,-0.02227 0.09449,0 0.02227,0.02227 -0.01409,0.06632 0,0.09449 0.03984,0.07968 0.149145,0.109304 0.188988,0.188988 0.01409,0.02817 -0.01409,0.06632 0,0.09449 0.01992,0.03984 0.07457,0.05465 0.09449,0.09449 0.01409,0.02817 -0.02227,0.07222 0,0.09449 0.195511,0.195512 -0.0076,-0.298767 0.188988,0.09449 0.01409,0.02817 -0.02227,0.07222 0,0.09449 0.02227,0.02227 0.06632,-0.01409 0.09449,0 0.03984,0.01992 0.05465,0.07457 0.09449,0.09449 0.02817,0.01409 0.07222,-0.02227 0.09449,0 0.115092,0.115093 0.04426,0.21112 0.188988,0.283482 0.02817,0.01409 0.07222,-0.02227 0.09449,0 9e-5,9.1e-5 -1.43e-4,0.283054 0,0.283483 0.01409,0.04226 0.07457,0.05465 0.09449,0.09449 0.01873,0.03747 -0.01932,0.264164 0,0.283481 0.02227,0.02228 0.06632,-0.01409 0.09449,0 0.208932,0.104465 0.02932,0.05865 0.09449,0.188989 0.196631,0.393261 -0.0065,-0.101018 0.188988,0.09449 0.04725,0.04725 -0.04725,0.236235 0,0.283482 0.02227,0.02228 0.06632,-0.01408 0.09449,0 0.393262,0.19663 -0.101017,-0.0065 0.09449,0.188989 0.02227,0.02228 0.06632,-0.01408 0.09449,0 0.113393,0.05669 0.17009,0.226785 0.283483,0.28348 0.02817,0.01408 0.06632,-0.01408 0.09449,0 0.03984,0.01992 0.05465,0.07458 0.09449,0.0945 0.02817,0.01408 0.07222,-0.02228 0.09449,0 0.02227,0.02228 -0.01409,0.06632 0,0.09449 0.196631,0.393261 -0.0065,-0.101018 0.188988,0.09449 0.04454,0.04455 -0.02817,0.132643 0,0.188989 0.01992,0.03984 0.063,0.06299 0.09449,0.09449 0.0315,0.0315 0.05128,0.08369 0.09449,0.09449 0.09167,0.02291 0.188988,0 0.283482,0 0.0315,0 0.06632,-0.01408 0.09449,0 0.03984,0.01992 0.05465,0.07458 0.09449,0.0945 0.02817,0.01408 0.07222,-0.02228 0.09449,0 0.0498,0.0498 0.03589,0.149919 0.09449,0.188987 0.283482,0.188989 0.09449,-0.09449 0.283482,0 0.03984,0.01992 0.05465,0.07457 0.09449,0.0945 0.05126,0.02564 0.352121,-0.02585 0.377977,0 0.06187,0.06186 -0.09537,0.220194 0.09449,0.28348 0.05976,0.01992 0.125992,0 0.188988,0 0.0315,0 0.06632,-0.01408 0.09449,0 0.393261,0.196633 -0.101018,-0.0065 0.09449,0.188989 0.03394,0.03394 0.316843,-0.03057 0.377976,0 l -0.188884,0.189067 m 0,0 h 4.441221 0.944938 c 0.0315,0 0.07222,0.02228 0.0945,0 0.209983,-0.209982 -0.0525,-0.199492 0.283483,-0.283482 0.09167,-0.02291 0.18899,0 0.28348,0 h 0.566965 1.889881 0.944941 c 0.03735,0 0.432109,-0.02019 0.472469,0 0.03984,0.01992 0.063,0.06299 0.09449,0.09449 0.0315,0.0315 0.07458,0.05465 0.0945,0.09449 0.06517,0.13034 -0.114438,0.08452 0.09449,0.18899 0.07559,0.0378 0.207882,-0.0378 0.283482,0 0.03984,0.01992 0.063,0.06299 0.09449,0.09449 0.0315,0.0315 0.07457,0.05465 0.09449,0.09449 0.04226,0.08452 -0.04226,0.198963 0,0.283483 0.01408,0.02817 0.07222,-0.02228 0.0945,0 0.115086,0.115093 0.04426,0.211122 0.188986,0.283482 0.02817,0.01408 0.06632,-0.01408 0.0945,0 0.113393,0.0567 0.170088,0.226783 0.28348,0.283483 0.02817,0.01408 0.07222,-0.02228 0.0945,0 0.195511,0.195489 -0.298767,-0.0076 0.09449,0.188989 0.130339,0.06517 0.08452,-0.114438 0.188989,0.09449 0.01408,0.02817 -0.02228,0.07222 0,0.09449 0.04454,0.04455 0.132636,-0.02817 0.188986,0 0.03984,0.01992 0.05465,0.07457 0.09449,0.09449 0.232732,0.11637 -0.0853,-0.274291 0.283482,0.0945 0.02228,0.02228 -0.03056,0.08689 0,0.09449 0.0021,5.29e-4 0.626178,-0.01765 0.661458,0 0.03984,0.01992 0.05743,0.06978 0.0945,0.09449 0.107765,0.07184 0.241602,0.13995 0.377976,0.0945 0.04226,-0.01408 0.063,-0.063 0.09449,-0.09449 l 3.5e-5,1.322941 H 13.229167 V 27.125 20.510416"
         style="fill:#ffff00;fill-rule:evenodd;stroke:#000000;stroke-width:0.13229167;stroke-linecap:butt;stroke-linejoin:miter;stroke-miterlimit:4;stroke-dasharray:none;stroke-opacity:1" />
      <rect
         y="8.604166"
         x="13.229166"
         height="23.8125"
         width="26.458332"
         id="rect1525"
         style="opacity:1;vector-effect:none;fill:none;fill-opacity:1;fill-rule:nonzero;stroke:#000000;stroke-width:1.5;stroke-linecap:square;stroke-linejoin:miter;stroke-miterlimit:4;stroke-dasharray:none;stroke-dashoffset:0;stroke-opacity:1;paint-order:stroke fill markers" />
      <ellipse
         ry="1.3864607"
         rx="1.3697563"
         cy="12.207613"
         cx="35.379807"
         id="path1549"
         style="opacity:1;vector-effect:none;fill:#ffff00;fill-opacity:1;fill-rule:nonzero;stroke:#000000;stroke-width:0.13229166;stroke-linecap:square;stroke-linejoin:miter;stroke-miterlimit:4;stroke-dasharray:none;stroke-dashoffset:0;stroke-opacity:1;paint-order:stroke fill markers" />
      <path
         inkscape:connector-curvature="0"
         id="path1551"
         d="m 35.045716,14.329065 c -0.06682,0.378632 -0.133633,0.757264 -0.200451,1.135896 -0.01114,0.01114 -0.02843,0.01847 -0.03341,0.03341 -0.007,0.02113 0,0.04454 0,0.06682"
         style="fill:none;fill-rule:evenodd;stroke:#ffff00;stroke-width:0.26458332px;stroke-linecap:butt;stroke-linejoin:miter;stroke-opacity:1" />
      <path
         inkscape:connector-curvature="0"
         id="path1553"
         d="m 33.542324,13.861344 c -0.08909,0.144771 -0.178178,0.289542 -0.267269,0.434313 0,0.01114 0.0079,0.02553 0,0.03341 -0.01762,0.01761 -0.04511,0.0212 -0.06682,0.03341 -0.156503,0.08803 -0.307112,0.186965 -0.467719,0.267269 -0.01992,0.01 -0.04569,-0.007 -0.06682,0 -0.01495,0.005 -0.01931,0.02637 -0.03341,0.03341 -0.0099,0.005 -0.02344,-0.005 -0.03341,0 -0.04128,0.02064 -0.03341,0.03226 -0.03341,0.06682"
         style="fill:none;fill-rule:evenodd;stroke:#ffff00;stroke-width:0.26458332px;stroke-linecap:butt;stroke-linejoin:miter;stroke-opacity:1" />
      <path
         inkscape:connector-curvature="0"
         id="path1555"
         d="m 32.807335,11.790005 c -0.938231,0.281469 -0.438565,0.163714 -1.503391,0.334087"
         style="fill:none;fill-rule:evenodd;stroke:#ffff00;stroke-width:0.26458332px;stroke-linecap:butt;stroke-linejoin:miter;stroke-opacity:1" />
      <path
         inkscape:connector-curvature="0"
         id="path1559"
         d="m 37.718412,12.524996 c 0.472482,0 0.09587,-0.03486 0.300678,0.03341 0.01056,0.0035 0.02344,-0.005 0.03341,0 0.139038,0.06952 -0.03572,-0.0023 0.03341,0.06682 0.0079,0.0079 0.02228,0 0.03341,0 0.01114,0 0.02228,0 0.03341,0"
         style="fill:none;fill-rule:evenodd;stroke:#ffff00;stroke-width:0.26458332px;stroke-linecap:butt;stroke-linejoin:miter;stroke-opacity:1" />
      <path
         inkscape:connector-curvature="0"
         id="path1561"
         d="m 37.050239,13.994978 c 0.733263,-0.133325 0.254108,0.514744 0.434311,0.734991 0.08492,0.103787 0.178181,0.200453 0.267271,0.300679"
         style="fill:none;fill-rule:evenodd;stroke:#ffff00;stroke-width:0.26458332px;stroke-linecap:butt;stroke-linejoin:miter;stroke-opacity:1" />
      <path
         inkscape:connector-curvature="0"
         id="path1571"
         d="m 34.410951,20.977395 c 0.149847,0.02768 0.259162,0.153205 0.400905,0.200452 0.123425,0.04114 0.03168,-0.101957 0.200451,0.06682 0.02228,0.04454 0.04454,0.08909 0.06682,0.133635 0.02228,0 0.05107,-0.01575 0.06682,0 0.08909,0.08909 -0.14174,0.06412 0.06682,0.133635 0.04226,0.01409 0.09042,-0.0108 0.133633,0 0.266978,0.06674 0.0011,0.06733 0.267272,0.200452 0.03984,0.01992 0.09137,-0.01409 0.133633,0 0.02988,0.01 0.04061,0.04935 0.06682,0.06682 0.04144,0.02763 0.08909,0.04454 0.133636,0.06682 0.04454,0.02227 0.08739,0.04832 0.133633,0.06682 0.03477,0.156264 0.189095,0.04076 0.267271,0.06682 0.04725,0.01575 0.08532,0.05474 0.133633,0.06682 0.04321,0.0108 0.09138,-0.01409 0.133636,0 0.117523,0.03918 0.03965,0.118957 0.06682,0.200452 0.04251,0.127524 0.131416,0.0323 0.200451,0.06682 0.19663,0.09832 -0.103719,0.06682 0.200454,0.06682"
         style="fill:none;fill-rule:evenodd;stroke:#ffffff;stroke-width:0.0269875;stroke-linecap:butt;stroke-linejoin:miter;stroke-miterlimit:4;stroke-dasharray:none;stroke-opacity:1" />
      <path
         inkscape:connector-curvature="0"
         id="path1573"
         d="m 34.010047,23.91736 c 0.222726,0.133634 0.435856,0.284745 0.668173,0.400904 0.03984,0.01992 0.09138,-0.01409 0.133636,0 0.02988,0.01 0.03928,0.05152 0.06682,0.06682 0.374504,0.208059 0.752705,0.409762 1.135896,0.601357 0.01992,0.01 0.04454,0 0.06681,0 0.04454,0 0.09042,-0.0108 0.133636,0 0.322656,0.08066 -0.0033,0.03175 0.200451,0.133634 0.196633,0.09832 -0.08797,-0.154787 0.133635,0.06682"
         style="fill:none;fill-rule:evenodd;stroke:#ffffff;stroke-width:0.0269875;stroke-linecap:butt;stroke-linejoin:miter;stroke-miterlimit:4;stroke-dasharray:none;stroke-opacity:1" />
      <path
         inkscape:connector-curvature="0"
         id="path1575"
         d="m 16.637528,20.242404 c 0.623629,0 1.247258,0 1.870887,0 0.111362,0 0.222724,0 0.334087,0 0.02227,0 0.05107,-0.01575 0.06682,0 0.01575,0.01575 -0.007,0.04569 0,0.06682 0.01575,0.04725 0.03919,0.0922 0.06682,0.133635 -0.0067,0.132369 0.09842,0.0316 0.133635,0.06682 0.0315,0.0315 -0.01992,0.09379 0,0.133635 0.02817,0.05635 0.105462,0.07729 0.133635,0.133635 0.0096,0.01912 0,0.298392 0,0.334087"
         style="fill:none;fill-rule:evenodd;stroke:#ffffff;stroke-width:0.0269875;stroke-linecap:butt;stroke-linejoin:miter;stroke-miterlimit:4;stroke-dasharray:none;stroke-opacity:1" />
      <path
         inkscape:connector-curvature="0"
         id="path1577"
         d="m 24.254709,23.048734 c 0.17818,0.06682 0.35636,0.133634 0.534539,0.200452 0.02227,0 0.04569,-0.007 0.06682,0 0.04725,0.01575 0.0922,0.03919 0.133635,0.06682 0.02621,0.01747 0.03864,0.05273 0.06682,0.06682 0.05345,0.02673 0.146998,-0.02673 0.200452,0 0.01992,0.01 -0.01575,0.05107 0,0.06682 0.01366,0.01366 0.17396,-0.01325 0.200452,0 0.203764,0.101882 -0.122205,0.05297 0.200452,0.133635 0.04322,0.0108 0.09138,-0.01409 0.133635,0 0.294946,0.09832 -0.242758,0.06682 0.200452,0.06682"
         style="fill:none;fill-rule:evenodd;stroke:#ffffff;stroke-width:0.0269875;stroke-linecap:butt;stroke-linejoin:miter;stroke-miterlimit:4;stroke-dasharray:none;stroke-opacity:1" />
      <path
         inkscape:connector-curvature="0"
         id="path1579"
         d="m 28.33057,26.45642 c 0.200451,0.02227 0.400499,0.04856 0.601355,0.06682 0.131321,0.01193 0.268666,0 0.400905,0 0.311814,0 0.623628,0 0.935445,0"
         style="fill:none;fill-rule:evenodd;stroke:#ffffff;stroke-width:0.0269875;stroke-linecap:butt;stroke-linejoin:miter;stroke-miterlimit:4;stroke-dasharray:none;stroke-opacity:1" />
      <path
         inkscape:connector-curvature="0"
         id="path1585"
         d="m 29.065561,21.311482 c 1.320474,-1.120313 0.473205,0.804549 0.868627,1.00226 0.07347,0.03674 0.134869,-0.06435 0.200451,0.06682 0.01992,0.03984 -0.0315,0.102136 0,0.133635 0.02066,0.02065 0.313603,-0.02048 0.334087,0 0.01574,0.01575 -0.01574,0.05107 0,0.06682 0.01574,0.01575 0.04454,0 0.06682,0 0.04454,0 0.08909,0 0.133633,0"
         style="fill:none;fill-rule:evenodd;stroke:#ffffff;stroke-width:0.0269875;stroke-linecap:butt;stroke-linejoin:miter;stroke-miterlimit:4;stroke-dasharray:none;stroke-opacity:1" />
      <path
         inkscape:connector-curvature="0"
         id="path1587"
         d="m 33.809596,26.790507 c 0.200451,0.06682 0.39897,0.139737 0.601355,0.200453 0.04267,0.01281 0.09269,-0.01754 0.133636,0 0.137327,0.05885 0.276587,0.117573 0.400905,0.200451 0.01852,0.01236 -0.01574,0.05107 0,0.06682 0.01574,0.01574 0.04454,0 0.06681,0 0.04454,0 0.08909,0 0.133636,0"
         style="fill:none;fill-rule:evenodd;stroke:#ffffff;stroke-width:0.0269875;stroke-linecap:butt;stroke-linejoin:miter;stroke-miterlimit:4;stroke-dasharray:none;stroke-opacity:1" />
    </g>
    <g
       id="g1765">
      <rect
         y="125.2849"
         x="13.229166"
         height="23.548439"
         width="26.326115"
         id="rect1649"
         style="opacity:1;vector-effect:none;fill:#00ffff;fill-opacity:1;fill-rule:nonzero;stroke:#008000;stroke-width:0.079375;stroke-linecap:square;stroke-linejoin:miter;stroke-miterlimit:4;stroke-dasharray:none;stroke-dashoffset:0;stroke-opacity:1;paint-order:stroke fill markers" />
      <path
         inkscape:connector-curvature="0"
         id="path1641"
         d="m 13.096875,136.26562 c 0.285973,-0.0715 0.264583,0.0248 0.264583,-0.13229 0,-0.022 -0.01559,-0.0505 0,-0.0661 0.08819,-0.0882 0.06615,0.11024 0.06615,-0.0662 0,-0.022 0,-0.0441 0,-0.0661 0,-0.022 -0.01559,-0.0506 0,-0.0661 0.01559,-0.0156 0.0441,0 0.06615,0 0.0441,0 0.09285,0.0197 0.132291,0 0.03944,-0.0197 -0.03118,-0.10111 0,-0.13229 0.03118,-0.0312 0.101111,0.0312 0.132292,0 0.01559,-0.0156 -0.0099,-0.0464 0,-0.0661 0.01394,-0.0279 0.0522,-0.0383 0.06615,-0.0661 0.0099,-0.0197 0,-0.0441 0,-0.0662 0,-0.0441 -0.01395,-0.0905 0,-0.13229 0.0099,-0.0296 0.0441,-0.0441 0.06615,-0.0661 0.02205,-0.022 0.03656,-0.0563 0.06615,-0.0661 0.08367,-0.0279 0.185699,0.0394 0.264583,0 0,-0.0684 -0.01559,-0.0914 0.06615,-0.13229 0.03588,-0.0179 0.246484,0.0181 0.264583,0 0.01559,-0.0156 -0.01972,-0.0563 0,-0.0662 0.05292,-0.0265 0.145521,0.0265 0.198438,0 0.121775,-0.0609 0.01052,-0.13755 0.132291,-0.19844 0.01972,-0.01 0.0441,0 0.06615,0 0.0441,0 0.0882,0 0.132292,0 0.176389,0 0.352777,0 0.529166,0 0.176389,0 0.352778,0 0.529167,0 0.02979,0 0.178307,-0.0101 0.198438,0 0.07937,0.0397 0.119062,0.15875 0.198437,0.19844 0.09124,0.0456 0.05917,-0.0801 0.132292,0.0662 0.0099,0.0197 -0.01972,0.0563 0,0.0661 0.04069,0.0204 0.288525,-0.0211 0.330729,0 0.02789,0.0139 0.0359,0.0586 0.06615,0.0661 0.105306,0.0401 0.223777,-0.0267 0.330729,0 0.181218,0.0453 0.208125,0.20166 0.396875,0.26458 0.06275,0.0209 0.134266,-0.016 0.198437,0 0.04783,0.012 0.08446,0.0542 0.132292,0.0662 0.0022,5.3e-4 0.198086,-2.7e-4 0.198438,0 0.01559,0.0156 -0.01559,0.0505 0,0.0661 0.203028,0.20303 0.055,-0.0386 0.264583,0.0661 0.01972,0.01 -0.01972,0.0563 0,0.0661 0.05916,0.0296 0.132292,0 0.198437,0 0.132292,0 0.264584,0 0.396875,0 0.02205,0 0.0441,0 0.06615,0 0.02205,0 0.04642,-0.01 0.06615,0 0.02789,0.0139 0.0522,0.0383 0.06615,0.0661 0.0099,0.0197 -0.01972,0.0563 0,0.0661 0.05916,0.0296 0.132292,0 0.198437,0 0.132292,0 0.264584,0 0.396875,0 0.418924,0 0.837847,0 1.256771,0 0.529167,0 1.058334,0 1.5875,0 0.176389,0 0.352778,0 0.529167,0 0.06615,0 0.135686,0.0209 0.198437,0 0.148332,-0.0495 -0.01598,-0.19045 0.132292,-0.26459 0.03498,-0.0175 0.232358,0.008 0.264583,0 0.319415,-0.0798 -0.0033,-0.0314 0.198438,-0.13229 0.01972,-0.01 0.0441,0 0.06615,0 0.02205,0 0.0441,0 0.06615,0 0.06924,0 0.343084,0.0134 0.396875,0 0.04783,-0.012 0.08552,-0.0506 0.132291,-0.0661 0.02092,-0.007 0.0441,0 0.06615,0 0.0441,0 0.08819,0 0.132292,0 0.08819,0 0.176388,0 0.264583,0 0.352778,0 0.705555,0 1.058333,0 0.05762,0 0.37246,0.0122 0.396875,0 0.05578,-0.0279 0.07651,-0.1044 0.132292,-0.13229 0.0186,-0.009 0.412456,0 0.463021,0 0.485068,0 0.97014,0 1.455208,0 0.132292,0 0.264583,0 0.396875,0 0.0441,0 0.08819,0 0.132292,0 0.0441,0 0.09285,0.0197 0.132291,0 0.01971,-0.01 -0.01558,-0.0506 0,-0.0661 0.01558,-0.0156 0.0441,0 0.06615,0 0.02204,0 0.0441,0 0.06615,0 0.132292,0 0.264583,0 0.396875,0 0.0441,0 0.09046,0.0139 0.132292,0 0.04677,-0.0156 0.09127,-0.0388 0.132291,-0.0661 0.02596,-0.0173 0.03657,-0.0563 0.06615,-0.0661 2.65e-4,-1.1e-4 0.198374,6e-5 0.198438,0 0.01558,-0.0156 -0.01971,-0.0563 0,-0.0662 0.04157,-0.0208 0.223009,0.0208 0.264583,0 0.05578,-0.0279 0.07313,-0.11257 0.132292,-0.13229 0.03556,-0.0119 0.208581,0 0.264583,0 0.198438,0 0.396875,0 0.595313,0 0.132291,0 0.264583,0 0.396875,0 0.02204,0 0.0441,0 0.06614,0 0.02204,0 0.04642,-0.01 0.06615,0 0.07938,0.0397 0.119063,0.15875 0.198438,0.19844 0.01894,0.009 0.295394,0 0.330729,0 0.110244,0 0.220485,0 0.330729,0 0.02204,0 0.05628,-0.0197 0.06615,0 0.01971,0.0394 0,0.0882 0,0.13229 0,0.022 -0.01558,0.0506 0,0.0661 0.0021,0.002 0.182396,0 0.198437,0 0.242536,0 0.485069,0 0.727605,0 0.01572,0 0.249758,-0.007 0.264583,0 0.02789,0.0139 0.03826,0.0522 0.06615,0.0661 0.03944,0.0197 0.09285,-0.0197 0.132291,0 0.05578,0.0279 0.07651,0.1044 0.132292,0.13229 0.01971,0.01 0.0441,0 0.06615,0 0.02204,0 0.0441,0 0.06615,0 0.110244,0 0.220485,0 0.330729,0 0.0441,0 0.08819,0 0.132292,0 0.02204,0 0.04642,-0.01 0.06614,0 0.02789,0.0139 0.03826,0.0522 0.06615,0.0662 0.02013,0.01 0.168648,0 0.198438,0 0.176389,0 0.352777,0 0.529166,0 0.463021,0 0.926042,0 1.389063,0 0.01572,0 0.249759,-0.007 0.264583,0 0.05578,0.0279 0.07651,0.1044 0.132292,0.13229 0.01971,0.01 0.0441,0 0.06615,0 0.02204,0 0.0441,0 0.06615,0 0.110243,0 0.220485,0 0.330729,0 0.06615,0 0.132291,0 0.198437,0 0.02204,0 0.05629,0.0197 0.06615,0 0.01971,-0.0394 -0.01971,-0.0928 0,-0.13229 0.0099,-0.0197 0.05055,0.0156 0.06615,0 0.01558,-0.0156 0,-0.0441 0,-0.0662 0.02204,-0.022 0.0402,-0.0488 0.06615,-0.0661 0.04102,-0.0273 0.09743,-0.0313 0.132291,-0.0661 0.01558,-0.0156 -0.0099,-0.0464 0,-0.0661 0.137642,-0.27528 -0.0046,0.0707 0.132292,-0.0661 0.01558,-0.0156 -0.01558,-0.0506 0,-0.0661 0.01558,-0.0156 0.0441,0 0.06615,0 0.110244,0 0.220485,0 0.330729,0 0.02204,0 0.05055,0.0156 0.06615,0 0.01558,-0.0156 -0.0099,-0.0464 0,-0.0661 0.04087,-0.0817 0.06386,-0.0662 0.132292,-0.0662 l -1.1e-4,13.75814 H 13.229167 Z"
         style="fill:#008000;fill-rule:evenodd;stroke:#008000;stroke-width:0.26458332px;stroke-linecap:butt;stroke-linejoin:miter;stroke-opacity:1" />
      <path
         inkscape:connector-curvature="0"
         id="path1639"
         d="m 32.83668,131.06846 c -0.196215,-0.025 -0.02604,0.10162 -0.06142,0.13701 -0.01744,0.0174 -0.04642,0.0183 -0.06615,0.0331 -0.02495,0.0187 -0.0402,0.0488 -0.06615,0.0661 -0.01834,0.0122 -0.04642,-0.01 -0.06615,0 -0.02789,0.0139 -0.0402,0.0488 -0.06615,0.0661 -0.144447,0.0963 0.0109,-0.0147 -0.132292,0.0331 -0.02958,0.01 -0.03826,0.0522 -0.06615,0.0661 -0.0099,0.005 -0.02262,-0.003 -0.03307,0 -0.02339,0.008 -0.04183,0.029 -0.06615,0.0331 -0.0435,0.007 -0.08951,-0.0107 -0.132291,0 -0.01069,0.003 0.0078,0.0253 0,0.0331 -0.01744,0.0174 -0.0441,0.022 -0.06615,0.0331 -0.02204,0.011 -0.04197,0.0282 -0.06615,0.0331 -0.03243,0.006 -0.06615,0 -0.09922,0 -0.01103,0 -0.02262,-0.003 -0.03307,0 -0.239561,0.0799 0.05214,-0.01 -0.09922,0.0661 -0.0087,0.004 -0.114999,0 -0.132292,0 -0.0441,0 -0.08819,0 -0.132292,0 -0.02204,0 -0.04476,0.005 -0.06614,0 -0.02392,-0.006 -0.0441,-0.022 -0.06615,-0.0331 -0.02204,-0.011 -0.04872,-0.0156 -0.06615,-0.0331 -0.06564,-0.0656 0.156625,-0.0104 -0.06615,-0.0661 -0.06506,-0.0163 -0.134821,-0.0119 -0.198437,-0.0331 -0.01045,-0.003 0.0078,-0.0253 0,-0.0331 -0.01744,-0.0174 -0.04276,-0.0253 -0.06615,-0.0331 -0.01045,-0.003 -0.02527,0.008 -0.03307,0 -0.0078,-0.008 0.0099,-0.0281 0,-0.0331 -0.06615,-0.0331 -0.04961,0.0165 -0.09922,0 -0.04677,-0.0156 -0.08552,-0.0506 -0.132292,-0.0661 -0.01045,-0.003 -0.0232,0.005 -0.03307,0 -0.03555,-0.0178 -0.06367,-0.0484 -0.09922,-0.0661 -0.01971,-0.01 -0.04642,0.01 -0.06615,0 -0.03969,-0.0198 -0.05953,-0.0794 -0.09922,-0.0992 -0.01971,-0.01 -0.04642,0.01 -0.06615,0 -0.01394,-0.007 -0.01913,-0.0261 -0.03307,-0.0331 -0.0099,-0.005 -0.02204,0 -0.03307,0 -0.02204,-0.011 -0.04564,-0.0194 -0.06614,-0.0331 -0.01297,-0.009 -0.01828,-0.0281 -0.03307,-0.0331 -1.51e-4,-5e-5 -0.09919,3e-5 -0.09922,0 -0.0078,-0.008 0.0078,-0.0253 0,-0.0331 -0.0078,-0.008 -0.0232,0.005 -0.03307,0 -0.02789,-0.0139 -0.03826,-0.0522 -0.06615,-0.0661 -0.0099,-0.005 -0.0232,0.005 -0.03307,0 -0.01394,-0.007 -0.02011,-0.0244 -0.03307,-0.0331 -0.0205,-0.0137 -0.04872,-0.0156 -0.06614,-0.0331 -0.0078,-0.008 0.0078,-0.0253 0,-0.0331 -0.01558,-0.0156 -0.05055,0.0156 -0.06615,0 -0.0078,-0.008 0.0078,-0.0253 0,-0.0331 -0.01654,-0.0165 -0.08268,0.0165 -0.09922,0 -0.0078,-0.008 0.0049,-0.0232 0,-0.0331 -0.007,-0.0139 -0.02204,-0.022 -0.03307,-0.0331 -0.01103,-0.011 -0.01913,-0.0261 -0.03307,-0.0331 -0.0099,-0.005 -0.0232,0.005 -0.03307,0 -0.01394,-0.007 -0.01913,-0.0261 -0.03307,-0.0331 -0.0099,-0.005 -0.0232,0.005 -0.03307,0 -0.02789,-0.0139 -0.03826,-0.0522 -0.06614,-0.0661 -0.0099,-0.005 -0.0232,0.005 -0.03307,0 -0.01394,-0.007 -0.02204,-0.022 -0.03307,-0.0331 -0.01103,-0.011 -0.02612,-0.0191 -0.03307,-0.0331 -0.0049,-0.01 0.0078,-0.0253 0,-0.0331 -0.0078,-0.008 -0.02527,0.008 -0.03307,0 -0.0078,-0.008 0.0078,-0.0253 0,-0.0331 -0.0078,-0.008 -0.0232,0.005 -0.03307,0 -0.01394,-0.007 -0.02204,-0.022 -0.03307,-0.0331 -0.01945,-0.0194 -0.116978,-0.12463 -0.132292,-0.13229 -0.02958,-0.0148 -0.06964,0.0148 -0.09922,0 -0.0099,-0.005 0.0078,-0.0253 0,-0.0331 -0.06843,-0.0684 0.0027,0.10457 -0.06615,-0.0331 -0.0049,-0.01 0.0078,-0.0253 0,-0.0331 -0.0078,-0.008 -0.0232,0.005 -0.03307,0 -0.01394,-0.007 -0.02204,-0.022 -0.03307,-0.0331 -0.01103,-0.011 -0.02611,-0.0191 -0.03307,-0.0331 -0.0049,-0.01 0.0078,-0.0253 0,-0.0331 -0.0078,-0.008 -0.02527,0.008 -0.03307,0 -0.0078,-0.008 0.0078,-0.0253 0,-0.0331 -0.0078,-0.008 -0.0232,0.005 -0.03307,0 -0.01767,-0.009 -0.08181,-0.0818 -0.09922,-0.0992 -0.01741,-0.0174 -0.09039,-0.0815 -0.09922,-0.0992 -0.0049,-0.01 0.0078,-0.0253 0,-0.0331 -0.0078,-0.008 -0.02204,0 -0.03307,0 -0.02204,-0.011 -0.04871,-0.0156 -0.06615,-0.0331 -0.09313,-0.002 -0.0084,-0.0746 -0.03307,-0.0992 -0.0078,-0.008 -0.0232,0.005 -0.03307,0 -0.01394,-0.007 -0.02204,-0.022 -0.03307,-0.0331 -0.01103,-0.011 -0.02611,-0.0191 -0.03307,-0.0331 -0.0099,-0.0197 0.01558,-0.0506 0,-0.0661 -0.04028,-0.0403 -0.07389,-0.0155 -0.09922,-0.0662 -0.02281,-0.0456 0.04005,-0.0296 -0.03307,-0.0661 -0.04562,-0.0228 -0.02958,0.0401 -0.06615,-0.0331 -0.0099,-0.0197 0.01558,-0.0505 0,-0.0661 -0.0078,-0.008 -0.02527,0.008 -0.03307,0 -0.0078,-0.008 0,-0.022 0,-0.0331 0,-0.022 0.0099,-0.0464 0,-0.0661 -0.0049,-0.01 -0.02527,0.008 -0.03307,0 -0.0078,-0.008 0,-0.022 0,-0.0331 0,-0.022 0.0099,-0.0464 0,-0.0661 -0.0049,-0.01 -0.02204,0 -0.03307,0 -0.01103,-0.011 -0.02814,-0.0183 -0.03307,-0.0331 -0.007,-0.0209 0,-0.0441 0,-0.0662 0,-0.011 0.0049,-0.0232 0,-0.0331 -0.007,-0.0139 -0.02611,-0.0191 -0.03307,-0.0331 -0.0104,-0.0208 0.0104,-0.11151 0,-0.1323 -0.01323,-0.0264 -0.05292,-0.0397 -0.06615,-0.0661 -0.0095,-0.019 0.007,-0.13721 0,-0.16537 -0.006,-0.0239 -0.02392,-0.0433 -0.03307,-0.0661 -0.01294,-0.0324 -0.02461,-0.0654 -0.03307,-0.0992 -0.0027,-0.0107 0.0049,-0.0232 0,-0.0331 -0.007,-0.0139 -0.02612,-0.0191 -0.03307,-0.0331 -0.0098,-0.0195 0.0076,-0.0765 0,-0.0992 -0.01558,-0.0468 -0.05055,-0.0855 -0.06615,-0.13229 -0.007,-0.0209 0.0099,-0.0464 0,-0.0661 -0.01394,-0.0279 -0.05628,-0.0366 -0.06615,-0.0662 -0.0051,-0.0151 0.0074,-0.11757 0,-0.13229 -0.007,-0.0139 -0.02204,-0.022 -0.03307,-0.0331 0,-0.022 0.007,-0.0452 0,-0.0661 -0.0099,-0.0296 -0.05628,-0.0366 -0.06615,-0.0661 -0.007,-0.0209 0.0053,-0.0448 0,-0.0661 -0.006,-0.0239 -0.02709,-0.0422 -0.03307,-0.0662 -0.0053,-0.0214 0.0099,-0.0464 0,-0.0661 -0.0049,-0.01 -0.0232,0.005 -0.03307,0 -0.01394,-0.007 -0.02611,-0.0191 -0.03307,-0.0331 -0.0104,-0.0208 0.0104,-0.1115 0,-0.13229 -0.007,-0.0139 -0.02611,-0.0191 -0.03307,-0.0331 -0.02281,-0.0456 0.04005,-0.0296 -0.03307,-0.0662 -0.0099,-0.005 -0.02527,0.008 -0.03307,0 -0.01558,-0.0156 0.0099,-0.0464 0,-0.0661 -0.007,-0.014 -0.02612,-0.0191 -0.03307,-0.0331 -0.0099,-0.0197 0.01558,-0.0506 0,-0.0661 -0.0078,-0.008 -0.02527,0.008 -0.03307,0 -0.0078,-0.008 0,-0.022 0,-0.0331 0,-0.022 0.0099,-0.0464 0,-0.0661 -0.0049,-0.01 -0.0232,0.005 -0.03307,0 -0.06689,-0.0335 -0.01061,-0.0768 -0.03307,-0.0992 -0.0078,-0.008 -0.02527,0.008 -0.03307,0 -0.0078,-0.008 0,-0.022 0,-0.0331 0,-0.011 0,-0.022 0,-0.0331 0,-0.0551 0,-0.11025 0,-0.16537 0,-0.022 0.0099,-0.0464 0,-0.0661 -0.03421,0 -0.04571,0.008 -0.06615,-0.0331 -0.0099,-0.0197 0.0099,-0.0464 0,-0.0661 -0.007,-0.014 -0.02611,-0.0191 -0.03307,-0.0331 -0.0099,-0.0197 0.01558,-0.0506 0,-0.0661 -0.01558,-0.0156 -0.05055,0.0156 -0.06615,0 -0.0088,-0.009 0.007,-0.14425 0,-0.16537 -0.0078,-0.0234 -0.02527,-0.0428 -0.03307,-0.0661 -0.0071,-0.0214 0,-0.13829 0,-0.16537 0,-0.0992 0,-0.19843 0,-0.29765 0,-0.015 0.0044,-0.18963 0,-0.19844 -0.06882,-0.13764 0.0024,0.0354 -0.06615,-0.0331 -0.0078,-0.008 0,-0.022 0,-0.0331 0,-0.011 0,-0.022 0,-0.0331 0,-0.0661 0,-0.13229 0,-0.19844 0,-0.022 0,-0.0441 0,-0.0661 0,-0.011 -0.0049,-0.0232 0,-0.0331 0.007,-0.0139 0.02204,-0.022 0.03307,-0.0331 0.01103,-0.011 0.01913,-0.0261 0.03307,-0.0331 0.0099,-0.005 0.0232,0.005 0.03307,0 0.137641,-0.0688 -0.03536,0.002 0.03307,-0.0661 0.0078,-0.008 0.02204,0 0.03307,0 0.01103,0 0.02204,0 0.03307,0 0.02204,0 0.04523,-0.007 0.06615,0 0.02339,0.008 0.0441,0.022 0.06615,0.0331 0.0441,0.022 0.08819,0.0441 0.132292,0.0661 0.02204,0.011 0.04197,0.0282 0.06615,0.0331 0.03243,0.006 0.06679,-0.006 0.09922,0 0.06121,-0.0246 0.06066,0.0565 0.09922,0.0661 0.110244,0.0276 0.0735,-0.0184 0.165365,0 0.03418,0.007 0.0657,0.0235 0.09922,0.0331 0.04371,0.0125 0.08859,0.0206 0.132292,0.0331 0.03352,0.01 0.06504,0.0262 0.09922,0.0331 0.02162,0.004 0.0441,0 0.06615,0 0.05512,0 0.110243,0 0.165364,0 0.03307,0 0.0666,-0.005 0.09922,0 0.03439,0.006 0.0654,0.0246 0.09922,0.0331 0.05454,0.0136 0.110244,0.022 0.165364,0.0331 0.05512,0.022 0.108281,0.0498 0.165365,0.0661 0.02119,0.006 0.0441,0 0.06615,0 0.03307,0 0.06614,0 0.09922,0 0.08819,0 0.17639,0 0.264584,0 0.03307,0 0.06615,0 0.09922,0 0.03307,0 0.06679,-0.006 0.09922,0 0.04835,0.01 0.08395,0.0565 0.132292,0.0662 0.05405,0.0108 0.110244,0 0.165364,0 0.121267,0 0.242536,0 0.363803,0 0.143316,0 0.286631,0 0.429947,0 0.01103,0 0.02204,0 0.03307,0 0.01103,0 0.02527,0.008 0.03307,0 0.06843,-0.0684 -0.104568,0.003 0.03307,-0.0662 0.01206,-0.006 0.146309,0 0.165365,0 0.132291,0 0.264583,0 0.396875,0 0.02204,0 0.0441,0 0.06615,0 0.01103,0 0.0232,0.005 0.03307,0 0.151362,-0.0757 -0.140343,0.0137 0.09922,-0.0661 0.01045,-0.004 0.02204,0 0.03307,0 0.06615,0 0.132292,0 0.198438,0 0.187412,0 0.374827,0 0.562239,0 0.07717,0 0.15434,0 0.231511,0 0.02204,0 0.04642,0.01 0.06615,0 0.0099,-0.005 -0.0078,-0.0253 0,-0.0331 0.0078,-0.008 0.02204,0 0.03307,0 0.01103,0 0.02204,0 0.03307,0 0.143317,0 0.286631,0 0.429948,0 0.02545,0 0.15443,0.005 0.165365,0 0.0099,-0.005 0,-0.022 0,-0.0331 0.02204,-0.011 0.04223,-0.0271 0.06615,-0.0331 0.03209,-0.008 0.06615,0 0.09922,0 0.09922,0 0.198438,0 0.297657,0 0.286631,0 0.573264,0 0.859895,0 0.496094,0 0.992188,0 1.488282,0 0.154339,0 0.308681,0 0.463021,0 0.03714,0 0.207867,0.008 0.23151,0 0.02339,-0.008 0.04276,-0.0253 0.06615,-0.0331 0.01916,-0.006 0.103632,0 0.132291,0 0.121267,0 0.242536,0 0.363803,0 0.05512,0 0.110243,0 0.165364,0 0.01103,0 0.02262,0.004 0.03307,0 0.239562,-0.0799 -0.05214,0.01 0.09922,-0.0661 0.01005,-0.005 0.08432,0 0.09922,0 0.08819,0 0.176389,0 0.264583,0 0.286631,0 0.573265,0 0.859896,0 0.209462,0 0.418922,0 0.628385,0 0.008,0 0.09815,-10e-4 0.09922,0 3.2e-5,3e-5 -5e-5,0.0991 0,0.0992 0.0049,0.0148 0.02204,0.022 0.03307,0.0331 0.03784,0.0378 0.04612,0.0392 0.06615,0.0992 0.0062,0.0186 0,0.0775 0,0.0992 0,0.0882 0,0.17638 0,0.26458 0,0.11024 0,0.22049 0,0.33073 0,0.023 -0.006,0.1534 0,0.16536 0.04087,0.0817 0.03307,-0.0114 0.03307,0.0661 0,0.12127 0,0.24253 0,0.3638 0,0.0379 -0.0086,0.098 0,0.13229 0.01196,0.0478 0.05055,0.0855 0.06614,0.1323 0.0062,0.0187 0,0.0775 0,0.0992 0,0.0662 0,0.1323 0,0.19844 0,0.0149 -0.005,0.0892 0,0.0992 0.01394,0.0279 0.05629,0.0366 0.06615,0.0661 0.007,0.0209 0,0.0441 0,0.0661 0,0.0661 0,0.13229 0,0.19844 0,0.022 -0.0053,0.0447 0,0.0661 0.006,0.0239 0.02527,0.0427 0.03307,0.0661 0.0035,0.0104 0,0.022 0,0.0331 0,0.022 0,0.0441 0,0.0662 0,0.022 -0.0053,0.0447 0,0.0661 0.03993,0.1597 0.01572,-0.002 0.06615,0.0992 0.005,0.0101 0,0.10946 0,0.1323 0,0.0271 -0.0071,0.14393 0,0.16536 0.0078,0.0234 0.02527,0.0428 0.03307,0.0661 0.0035,0.0104 0,0.022 0,0.0331 0,0.0551 0,0.11024 0,0.16536 0,0.022 0,0.0441 0,0.0661 0,0.011 -0.0049,0.0232 0,0.0331 0.01394,0.0279 0.0522,0.0383 0.06615,0.0661 0.01061,0.0212 -0.01027,0.1779 0,0.19844 0.007,0.0139 0.02814,0.0183 0.03307,0.0331 0.0057,0.017 0,0.19652 0,0.23151 0,0.011 0,0.022 0,0.0331 0,0.011 -0.0049,0.0232 0,0.0331 0.07568,0.15136 -0.01371,-0.14035 0.06614,0.0992 0.0065,0.0195 0,0.14689 0,0.16537 0,0.11024 0,0.22048 0,0.33073 0,0.0228 -0.005,0.12223 0,0.13229 0.007,0.0139 0.02814,0.0183 0.03307,0.0331 0.0051,0.0151 0,0.14691 0,0.16537 0,0.11024 0,0.22048 0,0.33073 0,0.028 -0.0059,0.11451 0,0.13229 -0.01236,0.0721 0.05512,0.011 0.06615,0.0331 0.0039,0.008 0,0.11056 0,0.13229 0,0.11024 0,0.22049 0,0.33073 0,0.18741 0,0.37483 0,0.56224 0,0.008 0.0011,0.0982 0,0.0992 -0.01744,0.0174 -0.05247,0.0126 -0.06615,0.0331 -0.01222,0.0183 0.007,0.0452 0,0.0662 -0.0099,0.0296 -0.05628,0.0366 -0.06615,0.0661 -0.0086,0.0258 0.0091,0.18024 0,0.19844 -0.007,0.0139 -0.02609,0.0191 -0.03307,0.0331 -0.0049,0.01 0.0049,0.0232 0,0.0331 -0.01323,0.0265 -0.05292,0.0397 -0.06615,0.0661 -0.0104,0.0208 0.0104,0.11151 0,0.1323 -0.007,0.0139 -0.02442,0.0201 -0.03307,0.0331 -0.01368,0.0205 -0.01939,0.0456 -0.03307,0.0661 -0.0087,0.013 -0.02814,0.0183 -0.03307,0.0331 -0.007,0.0209 0.007,0.0452 0,0.0661 -0.0084,0.0251 -0.117094,0.1019 -0.132292,0.13229 -0.0049,0.01 0.0078,0.0253 0,0.0331 -0.0078,0.008 -0.0232,-0.005 -0.03307,0 -0.01394,0.007 -0.02204,0.022 -0.03307,0.0331 -0.01103,0.011 -0.02609,0.0191 -0.03307,0.0331 -0.02281,0.0456 0.04005,0.0296 -0.03307,0.0662 -0.0099,0.005 -0.02204,0 -0.03307,0 -0.02204,0 -0.0441,0 -0.06615,0 -0.08819,0 -0.17639,0 -0.264583,0 -0.110244,0 -0.220486,0 -0.33073,0 -0.02204,0 -0.0441,0 -0.06614,0 -0.02204,0 -0.04523,0.007 -0.06615,0 -0.01479,-0.005 -0.01828,-0.0281 -0.03307,-0.0331 -0.07859,-0.0262 -0.06007,0.0392 -0.132292,-0.0331 -0.01744,-0.0174 -0.01564,-0.0487 -0.03307,-0.0661 -0.0034,-0.003 -0.15712,0.003 -0.165364,0 -0.01479,-0.005 -0.01913,-0.0261 -0.03307,-0.0331 -0.0099,-0.005 -0.02204,0 -0.03307,0 -0.02204,-0.011 -0.04564,-0.0194 -0.06615,-0.0331 -0.01297,-0.009 -0.01913,-0.0261 -0.03307,-0.0331 -0.03528,-0.0177 -0.03087,0.0177 -0.06615,0 -0.01394,-0.007 -0.01913,-0.0261 -0.03307,-0.0331 -0.01312,-0.007 -0.09246,0.007 -0.09922,0 -0.06843,-0.0684 0.104568,0.003 -0.03307,-0.0661 -0.01206,-0.006 -0.14631,0 -0.165365,0 -0.0149,0 -0.08915,0.005 -0.09922,0 -0.01394,-0.007 -0.01913,-0.0261 -0.03307,-0.0331 -0.01754,-0.009 -0.142864,0.007 -0.165364,0 -0.103233,-0.0344 0.01103,-0.022 -0.03307,-0.0662 -0.01558,-0.0156 -0.04642,0.01 -0.06615,0 -0.03969,-0.0198 -0.05953,-0.0794 -0.09922,-0.0992 -0.0099,-0.005 -0.02204,0 -0.03307,0 -0.02204,-0.011 -0.04564,-0.0194 -0.06615,-0.0331 -0.07568,-0.0505 0.02069,-0.0262 -0.09922,-0.0662 -0.03138,-0.0104 -0.06784,0.0105 -0.09922,0 -0.01479,-0.005 -0.01913,-0.0261 -0.03307,-0.0331 -0.01971,-0.01 -0.04642,0.01 -0.06615,0 -0.100859,-0.0504 0.06049,-0.0262 -0.09922,-0.0661 -0.02138,-0.005 -0.04642,0.01 -0.06615,0 -0.0099,-0.005 0.0078,-0.0253 0,-0.0331 -0.01654,-0.0165 -0.08268,0.0165 -0.09922,0 -0.06843,-0.0684 0.104569,0.003 -0.03307,-0.0661 -0.0208,-0.0104 -0.111506,0.0104 -0.132292,0 -0.01394,-0.007 -0.02011,-0.0244 -0.03307,-0.0331 -0.02051,-0.0137 -0.04872,-0.0156 -0.06615,-0.0331 -0.0078,-0.008 0.0078,-0.0253 0,-0.0331 -0.0051,-0.005 -0.08635,0.004 -0.09922,0 -0.02339,-0.008 -0.04223,-0.0271 -0.06615,-0.0331 -0.02815,-0.007 -0.146378,0.01 -0.165364,0 -0.02789,-0.0139 -0.03826,-0.0522 -0.06615,-0.0661 -0.02646,-0.0132 -0.07276,0.0132 -0.09922,0 -0.01394,-0.007 -0.01913,-0.0261 -0.03307,-0.0331 -0.02088,-0.0104 -0.144499,0.0104 -0.165365,0 -0.01394,-0.007 -0.02011,-0.0244 -0.03307,-0.0331 -0.04102,-0.0273 -0.09127,-0.0388 -0.132292,-0.0661 -0.01297,-0.009 -0.01913,-0.0261 -0.03307,-0.0331 -0.0195,-0.01 -0.07647,0.008 -0.09922,0 -0.02339,-0.008 -0.04223,-0.0271 -0.06615,-0.0331 -0.02138,-0.005 -0.0441,0 -0.06614,0 -0.01103,0 -0.0232,0.005 -0.03307,0 -0.02789,-0.0139 -0.03826,-0.0522 -0.06615,-0.0661 -0.0208,-0.0104 -0.111506,0.0104 -0.132292,0 -0.01394,-0.007 -0.01828,-0.0282 -0.03307,-0.0331 -0.03138,-0.0104 -0.06615,0 -0.09922,0 -0.07717,0 -0.154339,0 -0.23151,0 -0.01127,0 -0.114393,0.006 -0.132292,0 -0.02339,-0.008 -0.04564,-0.0194 -0.06614,-0.0331 -0.01297,-0.009 -0.01778,-0.03 -0.03307,-0.0331 -0.07803,-0.0156 -0.231939,0.0326 -0.297657,-0.0331 -0.0078,-0.008 0.0078,-0.0253 0,-0.0331 -0.0078,-0.008 -0.02204,0 -0.03307,0 -0.02204,0 -0.0441,0 -0.06614,0 -0.05512,0 -0.110244,0 -0.165365,0 -0.01103,0 -0.02204,0 -0.03307,0 -0.01103,0 -0.0232,0.005 -0.03307,0 -0.137641,-0.0688 0.03536,0.002 -0.03307,-0.0661 -0.01744,-0.0174 -0.05247,-0.0126 -0.06615,-0.0331 -0.01222,-0.0183 0.01222,-0.0478 0,-0.0661 -0.06454,-0.0968 -0.04662,-0.007 -0.09922,-0.0331 -0.01394,-0.007 -0.01913,-0.0261 -0.03307,-0.0331 -0.0099,-0.005 -0.0232,0.005 -0.03307,0 -0.137642,-0.0688 0.03536,0.002 -0.03307,-0.0661 -0.0078,-0.008 -0.02204,0 -0.03307,0 -0.01103,0 -0.02204,0 -0.03307,0 -0.03331,0 -0.180147,0.006 -0.198437,0 -0.122606,-0.0409 0.04031,-0.0331 -0.06615,-0.0331 -0.008,0 -0.09815,0.001 -0.09922,0 -0.01558,-0.0156 0.01558,-0.0506 0,-0.0661 -0.01654,-0.0165 -0.08268,0.0165 -0.09922,0 -0.0078,-0.008 0,-0.022 0,-0.0331 -0.02204,0 -0.04642,0.01 -0.06614,0 -0.0099,-0.005 0,-0.022 0,-0.0331 0,-0.0788 0.01101,-0.0327 -0.137018,-0.0378"
         style="fill:#008000;fill-rule:evenodd;stroke:#000000;stroke-width:0.05291667;stroke-linecap:butt;stroke-linejoin:miter;stroke-miterlimit:4;stroke-dasharray:none;stroke-opacity:1" />
      <path
         inkscape:connector-curvature="0"
         id="path1603"
         d="m 36.332961,139.80915 c 0.128937,0.77362 -0.06155,0.20546 0.09449,0.28348 0.01992,0.01 0.03489,0.0287 0.04725,0.0472 0.01953,0.0293 0.02236,0.0696 0.04725,0.0945 0.02228,0.0223 0.07222,-0.0223 0.0945,0 0.01114,0.0111 -0.01114,0.0361 0,0.0472 0.01114,0.0111 0.03611,-0.0111 0.04725,0 0.02228,0.0223 -0.02228,0.0722 0,0.0945 0.02363,0.0236 0.118118,-0.0236 0.14174,0 0.0321,0.0321 -0.04831,0.094 0.04725,0.14174 0.01405,0.007 0.263607,0 0.283482,0 0.157491,0 0.314982,0 0.472472,0 0.0315,0 0.063,0 0.09449,0 0.01574,0 0.03611,-0.0111 0.04725,0 0.01114,0.0111 -0.01114,0.0361 0,0.0472 0.01114,0.0111 0.03611,-0.0111 0.04725,0 0.09775,0.0978 -0.149384,-0.004 0.04725,0.0945 0.01408,0.007 0.03611,-0.0111 0.04725,0 0.01114,0.0111 0.01408,0.0402 0,0.0472 -0.04226,0.0211 -0.09948,-0.0211 -0.141743,0 -0.01992,0.01 -0.02611,0.0402 -0.04725,0.0472 -0.04482,0.0149 -0.09449,0 -0.14174,0 -0.06761,0 -0.106982,-0.0223 -0.141743,0.0473 -0.007,0.0141 0.01408,0.0402 0,0.0472 -0.03915,0.0196 -0.291793,-0.0195 -0.330729,0 -0.01408,0.007 0.01114,0.0361 0,0.0472 -0.01114,0.0111 -0.0315,0 -0.04725,0 -0.01574,0 -0.0315,0 -0.04725,0 -0.125992,0 -0.251984,0 -0.377976,0 l -1.670963,-0.68256 1.403165,-0.35079 z"
         style="fill:#552200;fill-rule:evenodd;stroke:#000000;stroke-width:0.13229167;stroke-linecap:butt;stroke-linejoin:miter;stroke-miterlimit:4;stroke-dasharray:none;stroke-opacity:1" />
      <path
         sodipodi:nodetypes="ccccscsccssssccscccccccccccsccccccscsccscscccccssccccccccccscccccccccscccscccsccccccccccccscsccscccccsscscsscccccccscccccccccccccccsccccccccccccccccccscccccccscsccccsccscccssscccscccsccccscscscsccsccsscsccccccccccccsccc"
         inkscape:connector-curvature="0"
         id="path1645"
         d="m 13.229167,148.83334 4.101041,-0.66147 c 0.02205,-0.0882 0.02549,-0.18328 0.06615,-0.26458 0.0099,-0.0197 0.05625,0.0197 0.06615,0 0.01972,-0.0394 0,-0.0882 0,-0.13229 v -0.39688 -0.0661 c 0,-0.022 -0.0099,-0.0464 0,-0.0661 0.01394,-0.0279 0.0522,-0.0383 0.06615,-0.0661 0.01972,-0.0394 -0.03118,-0.10109 0,-0.13229 0.03118,-0.0312 0.101111,0.0312 0.132291,0 0.01559,-0.0156 0,-0.0441 0,-0.0662 v -0.0661 c 0,-0.016 -0.0021,-0.19643 0,-0.19843 0.01559,-0.0156 0.05055,0.0156 0.06615,0 0.03118,-0.0312 -0.03118,-0.1011 0,-0.1323 0.03118,-0.0312 0.101112,0.0312 0.132292,0 0.03307,-0.0331 -0.03307,-0.16533 0,-0.19843 0.01559,-0.0156 0.05055,0.0156 0.06615,0 6.3e-5,-7e-5 -10e-5,-0.19814 0,-0.19844 0.01972,-0.0592 0.104401,-0.0765 0.132291,-0.13229 0.03528,-0.0706 -0.03528,-0.0617 0,-0.13229 0.219378,-0.2194 -0.03118,0.0624 0.06615,-0.1323 0.137592,-0.27528 -0.0046,0.0707 0.132292,-0.0661 0.01559,-0.0156 -0.0099,-0.0464 0,-0.0661 0.01394,-0.0279 0.0522,-0.0383 0.06615,-0.0661 0.0099,-0.0197 -0.01559,-0.0506 0,-0.0661 0.01559,-0.0156 0.05055,0.0156 0.06614,0 0.01559,-0.0156 -0.0099,-0.0464 0,-0.0661 0.03969,-0.0794 0.158748,-0.11904 0.198438,-0.19844 0.03118,-0.0624 0.02747,-0.14044 0.06615,-0.19844 0.01223,-0.0183 0.05055,0.0156 0.06615,0 0.01592,-0.0159 -0.01592,-0.24868 0,-0.26458 0.01559,-0.0156 0.05055,0.0156 0.06615,0 0.01559,-0.0156 0,-0.0441 0,-0.0661 v -0.13229 -0.39688 c 0,-0.0661 -0.02092,-0.13573 0,-0.19843 0.06882,-0.20647 0.0441,0.022 0.132292,-0.0662 0.03118,-0.0312 -0.03118,-0.10109 0,-0.13229 0.01559,-0.0156 0.05055,0.0156 0.06615,0 0.01559,-0.0156 0,-0.0441 0,-0.0661 0,-0.0344 -0.0059,-0.32173 0,-0.33073 0.03459,-0.0519 0.0977,-0.0804 0.132292,-0.13229 0.01223,-0.0183 0,-0.0441 0,-0.0661 0.02205,-0.022 0.0441,-0.0441 0.06614,-0.0661 0.03482,-0.0348 0.180778,-0.16314 0.198438,-0.19844 0.01972,-0.0394 -0.03118,-0.10109 0,-0.13229 0.03118,-0.0312 0.101112,0.0312 0.132292,0 0.01559,-0.0156 -0.0099,-0.0464 0,-0.0661 0.01394,-0.0279 0.0522,-0.0383 0.06615,-0.0661 0.0099,-0.0197 -0.01559,-0.0506 0,-0.0661 0.136892,-0.1369 -0.0053,0.20914 0.132292,-0.0661 0.01794,-0.0359 -0.0181,-0.24648 0,-0.26458 0.01559,-0.0156 0.05055,0.0156 0.06615,0 0.03307,-0.0331 -0.03307,-0.16534 0,-0.19844 0.01559,-0.0156 0.0441,0 0.06615,0 0,-0.0441 -0.01395,-0.0905 0,-0.13229 0.06882,-0.20647 0.0441,0.022 0.132291,-0.0661 0.01559,-0.0156 -0.01559,-0.0506 0,-0.0662 0.01559,-0.0156 0.05056,0.0156 0.06615,0 0.0441,-0.0441 -0.0441,-0.0882 0,-0.13229 0.03486,-0.0349 0.09743,-0.0313 0.132292,-0.0661 0.01592,-0.0159 -0.01592,-0.24869 0,-0.26459 0.01559,-0.0156 0.05055,0.0156 0.06615,0 0.01559,-0.0156 -0.0099,-0.0464 0,-0.0661 0.03969,-0.0794 0.158747,-0.11904 0.198437,-0.19844 0.0099,-0.0197 -0.01559,-0.0506 0,-0.0661 0.03118,-0.0312 0.112572,0.0394 0.132292,0 0.02958,-0.0592 0,-0.13233 0,-0.19843 0,-0.17639 -0.02205,0.022 0.06615,-0.0661 0.03118,-0.0312 -0.01972,-0.0928 0,-0.13229 0.137591,-0.27528 -0.0046,0.0707 0.132291,-0.0661 0.03118,-0.0312 -0.03118,-0.10109 0,-0.13229 0.01559,-0.0156 0.0441,0 0.06615,0 0,-0.0441 -0.01395,-0.0905 0,-0.13229 0.01493,-0.0448 0.173178,-0.14794 0.198438,-0.19844 0.01972,-0.0394 -0.03118,-0.10109 0,-0.13229 0.01559,-0.0156 0.05055,0.0156 0.06615,0 0.01559,-0.0156 -0.01559,-0.0506 0,-0.0661 0.136891,-0.1369 -0.0053,0.20913 0.132291,-0.0661 0.02646,-0.0529 -0.02646,-0.14554 0,-0.19844 0.01394,-0.0279 0.0522,-0.0383 0.06615,-0.0661 0.03469,-0.0694 -0.06445,-0.22109 0.06615,-0.26459 0.04183,-0.0139 0.09285,0.0197 0.132292,0 0.02746,-0.0137 -0.02309,-0.17533 0,-0.19843 0.03118,-0.0312 0.101111,0.0312 0.132291,0 0.01957,-0.0196 -0.02049,-0.22359 0,-0.26459 0.01394,-0.0279 0.0522,-0.0383 0.06615,-0.0661 0.0099,-0.0197 -0.0099,-0.0464 0,-0.0661 0.01394,-0.0279 0.0441,-0.0441 0.06615,-0.0661 0.02205,-0.022 0.0522,-0.0383 0.06615,-0.0661 0.0099,-0.0197 0,-0.0441 0,-0.0661 v -0.0661 -0.33073 -0.46302 c 0,-0.022 -0.01559,-0.0506 0,-0.0661 0.01559,-0.0156 0.05055,0.0156 0.06615,0 0.02144,-0.0215 -0.02099,-0.28873 0,-0.33073 0.137591,-0.27528 -0.0046,0.0707 0.132291,-0.0661 0.01559,-0.0156 -0.01559,-0.0506 0,-0.0661 0.01559,-0.0156 0.05056,0.0156 0.06615,0 0.01559,-0.0156 0,-0.0441 0,-0.0661 v -0.0661 -0.33073 c 0,-0.0441 -0.01972,-0.0928 0,-0.13229 0.01972,-0.0394 0.101112,0.0312 0.132292,0 0.03118,-0.0312 -0.03118,-0.10109 0,-0.13229 0.01559,-0.0156 0.05055,0.0156 0.06615,0 0.01592,-0.0159 0,-0.26459 0,-0.26459 l -0.08996,-0.33046 -0.852672,0.0155 -0.446532,0.24727 v 0.0661 0.0661 0.39687 c 0,0.022 0.01559,0.0506 0,0.0661 -0.01559,0.0156 -0.05056,-0.0156 -0.06615,0 -0.03486,0.0349 -0.0388,0.0913 -0.06615,0.13229 -0.0173,0.026 -0.0522,0.0383 -0.06615,0.0661 -0.02646,0.0529 0.02646,0.14552 0,0.19843 -0.137642,0.27529 0.0046,-0.0707 -0.132292,0.0661 -0.01559,0.0156 0.01559,0.0506 0,0.0661 -0.01559,0.0156 -0.05055,-0.0156 -0.06615,0 -0.136858,0.13685 0.209137,-0.005 -0.06615,0.13229 -0.01972,0.01 -0.05055,-0.0156 -0.06615,0 -0.01559,0.0156 0.0099,0.0464 0,0.0661 -0.01395,0.0279 -0.0522,0.0383 -0.06614,0.0662 -0.01972,0.0394 0.03118,0.10111 0,0.13229 -0.03118,0.0312 -0.101111,-0.0312 -0.132292,0 -0.03118,0.0312 0.03118,0.10111 0,0.13229 -0.01559,0.0156 -0.05056,-0.0156 -0.06615,0 -0.01559,0.0156 0.01559,0.0506 0,0.0661 -0.01559,0.0156 -0.05055,-0.0156 -0.06615,0 -0.03118,0.0312 0.03118,0.10111 0,0.13229 -0.03118,0.0312 -0.09285,-0.0197 -0.132291,0 -0.02789,0.0139 -0.03826,0.0522 -0.06615,0.0661 -0.04157,0.0208 -0.22301,-0.0208 -0.264584,0 -0.120952,0.0605 -0.01134,0.0718 -0.132291,0.13229 -0.03944,0.0197 -0.10111,-0.0312 -0.132292,0 -0.03118,0.0312 0.03118,0.10111 0,0.13229 -0.01559,0.0156 -0.05055,-0.0156 -0.06615,0 -0.01559,0.0156 0.01223,0.0478 0,0.0661 -0.03459,0.0519 -0.0977,0.0804 -0.132291,0.13229 -0.02446,0.0367 0.03118,0.10111 0,0.13229 -0.01559,0.0156 -0.05056,-0.0156 -0.06615,0 -0.02181,0.0218 0.01595,0.21671 0,0.26458 -0.01972,0.0592 -0.104402,0.0765 -0.132292,0.13229 -0.0099,0.0197 0.0099,0.0464 0,0.0661 -0.01395,0.0279 -0.0522,0.0383 -0.06615,0.0662 -0.0099,0.0197 0.01559,0.0505 0,0.0661 -0.03118,0.0312 -0.10111,-0.0312 -0.132291,0 -0.01559,0.0156 0.01559,0.0506 0,0.0661 -0.03307,0.0331 -0.165365,-0.0331 -0.198438,0 -0.03118,0.0312 0.01972,0.0928 0,0.13229 -0.137641,0.27528 0.0046,-0.0707 -0.132292,0.0661 -0.01559,0.0156 0,0.0441 0,0.0661 -0.06614,0.0441 -0.127332,0.0967 -0.198437,0.13229 -0.01972,0.01 -0.0441,0 -0.06615,0 -0.04688,0 -0.379773,-0.009 -0.396875,0 -0.02789,0.0139 -0.0441,0.0441 -0.06615,0.0661 -0.02205,0.022 -0.0522,0.0383 -0.06615,0.0661 -0.0099,0.0197 0.01559,0.0506 0,0.0661 -0.03118,0.0312 -0.10111,-0.0312 -0.132291,0 -0.01559,0.0156 0.0099,0.0464 0,0.0661 -0.01395,0.0279 -0.0441,0.0441 -0.06615,0.0661 -0.02205,0.022 -0.03826,0.0522 -0.06615,0.0662 -0.01972,0.01 -0.05055,-0.0156 -0.06615,0 -0.01559,0.0156 0.01559,0.0505 0,0.0661 -0.03118,0.0312 -0.09285,-0.0197 -0.132291,0 -0.146253,0.0731 -0.02053,0.0411 -0.06615,0.13229 -0.01395,0.0279 -0.03826,0.0522 -0.06615,0.0661 -0.01972,0.01 -0.05629,-0.0197 -0.06615,0 -0.01972,0.0394 0,0.0882 0,0.13229 0,0.022 0.01559,0.0506 0,0.0662 -0.01559,0.0156 -0.04643,-0.01 -0.06615,0 -0.05578,0.0279 -0.07651,0.1044 -0.132291,0.13229 -0.01972,0.01 -0.04642,-0.01 -0.06615,0 -0.02789,0.0139 -0.0441,0.0441 -0.06615,0.0661 -0.02205,0.022 -0.0522,0.0383 -0.06615,0.0661 -0.0099,0.0197 0.0099,0.0464 0,0.0661 -0.137641,0.27528 0.0046,-0.0707 -0.132292,0.0661 -0.01559,0.0156 0.0099,0.0464 0,0.0662 -0.01395,0.0279 -0.0522,0.0382 -0.06614,0.0661 -0.0099,0.0197 0.01559,0.0506 0,0.0661 -0.01559,0.0156 -0.04643,-0.01 -0.06615,0 -0.275283,0.13764 0.07071,-0.005 -0.06615,0.13229 -0.01559,0.0156 -0.05056,-0.0156 -0.06615,0 -0.03118,0.0312 0.03118,0.10111 0,0.13229 -0.01559,0.0156 -0.0441,0 -0.06615,0 -0.09595,0 -0.210348,-0.0423 -0.264583,0.0662 -0.01754,0.0351 0.015,0.28573 0,0.33073 -0.0443,0.1329 -0.155131,0.0228 -0.198438,0.0661 -0.01559,0.0156 0.01559,0.0506 0,0.0662 -0.01559,0.0156 -0.05056,-0.0156 -0.06615,0 -0.136858,0.13686 0.209137,-0.005 -0.06615,0.13229 -0.01972,0.01 -0.05056,-0.0156 -0.06615,0 -0.03118,0.0312 0.01972,0.0928 0,0.13229 -0.01395,0.0279 -0.0522,0.0383 -0.06615,0.0661 -0.0099,0.0197 0.01559,0.0505 0,0.0661 -0.01559,0.0156 -0.05056,-0.0156 -0.06615,0 -0.01559,0.0156 0.01559,0.0506 0,0.0661 -0.01559,0.0156 -0.0441,0 -0.06615,0 -0.0441,0 -0.09285,-0.0197 -0.132291,0 -0.02746,0.0137 0.02309,0.17535 0,0.19844 -0.03307,0.0331 -0.165365,-0.0331 -0.198438,0 -0.136858,0.13686 0.209138,-0.005 -0.06615,0.13229 -0.01972,0.01 -0.04642,-0.01 -0.06614,0 -0.07938,0.0397 -0.119063,0.15875 -0.198438,0.19844 -0.01972,0.01 -0.05055,-0.0156 -0.06615,0 -0.01559,0.0156 0.01559,0.0505 0,0.0661 -0.0218,0.0218 -0.216717,-0.016 -0.264583,0 -0.206462,0.0688 0.02205,0.0441 -0.06615,0.1323 -0.01559,0.0156 -0.04642,-0.01 -0.06615,0 -0.02789,0.0139 -0.03826,0.0522 -0.06615,0.0661 -0.01972,0.01 -0.05056,-0.0156 -0.06615,0 -0.01559,0.0156 0.01559,0.0506 0,0.0661 -0.03118,0.0312 -0.101111,-0.0312 -0.132292,0 -0.0021,0.002 0,0.18239 0,0.19843"
         style="fill:#0000ff;fill-rule:evenodd;stroke:#000000;stroke-width:0.079375;stroke-linecap:butt;stroke-linejoin:miter;stroke-miterlimit:4;stroke-dasharray:none;stroke-opacity:1" />
      <rect
         style="opacity:1;vector-effect:none;fill:none;fill-opacity:1;fill-rule:nonzero;stroke:#000000;stroke-width:1.5;stroke-linecap:square;stroke-linejoin:miter;stroke-miterlimit:4;stroke-dasharray:none;stroke-dashoffset:0;stroke-opacity:1;paint-order:stroke fill markers"
         id="rect1527"
         width="26.458332"
         height="23.8125"
         x="13.229167"
         y="125.02084" />
      <path
         sodipodi:nodetypes="ccccssscccscsccscsccscccsccscsccsccccsccsscccccccccssccccccssccccsccsccsccccccccccccssccscscsscssscccccccccccccccccccccscccccccscccccccccscsccscsssscccccccccccccccsccsssscccccccccssscscccccccsscccccsccccscscscccsccscsccccssssscccccsscccccsccssssccsscccsccccssccccsccccccssccccccccccscccsccssscccscccscsscccsccsscccccccccccsccsccc"
         inkscape:connector-curvature="0"
         id="path1591"
         d="m 36.427455,131.16294 c -0.09961,0.0626 0.0249,0.16154 0,0.23624 -0.01114,0.0334 -0.0315,0.063 -0.04725,0.0945 -0.01574,0.0315 -0.02236,0.0696 -0.04725,0.0945 -0.01114,0.0111 -0.0402,-0.0141 -0.04725,0 -0.0078,0.0156 0,0.19987 0,0.23623 v 0.47247 c 0,0.0787 0.01545,0.15902 0,0.23624 -0.0069,0.0345 -0.0315,0.063 -0.04725,0.0945 -0.01574,0.0472 -0.03906,0.0926 -0.04725,0.14174 -0.0078,0.0466 0,0.0945 0,0.14174 v 0.14175 0.47247 c 0,0.063 0.0078,0.12647 0,0.18898 -0.008,0.0644 -0.03806,0.12471 -0.04725,0.18899 -0.0067,0.0468 0,0.0945 0,0.14174 v 0.14174 0.33073 c 0,0.0315 0.0076,0.0639 0,0.0945 -0.07711,0.30845 -0.02537,-0.17851 -0.09449,0.23623 -0.0078,0.0466 0,0.0945 0,0.14174 v 0.23624 0.75595 0.23624 0.0945 c 0,0.0157 0.005,0.0323 0,0.0472 -0.0993,0.29791 0.0037,-0.20766 -0.09449,0.28348 -0.01064,0.0532 0,0.13818 0,0.18899 v 0.47247 1.08668 c 0,0.0425 -0.0053,0.27816 0,0.28348 0.02228,0.0223 0.06632,-0.0141 0.09449,0 0.01408,0.007 0,0.0315 0,0.0472 0,0.0112 -0.0053,0.1784 0,0.18899 0.01992,0.0398 0.07457,0.0546 0.09449,0.0945 0.01468,0.0293 -0.01513,0.25321 0,0.28348 0.01,0.0199 0.03729,0.0273 0.04725,0.0472 0.007,0.0141 0,0.0315 0,0.0472 0,0.0361 -0.0066,0.31743 0,0.33073 0.01992,0.0398 0.07458,0.0546 0.0945,0.0945 0.0062,0.0124 0,0.16428 0,0.18899 v 0.0945 c 0,0.0157 -0.007,0.0332 0,0.0472 0.0099,0.0199 0.03728,0.0273 0.04725,0.0472 0.01503,0.0301 -0.01363,0.19538 0,0.23623 0.02228,0.0668 0.07222,0.12217 0.09449,0.18899 0.01495,0.0448 -0.01146,0.0959 0,0.14174 0.0085,0.0342 0.03611,0.0611 0.04725,0.0945 0.01,0.0299 -0.01408,0.0663 0,0.0945 0.01992,0.0398 0.08041,0.0522 0.0945,0.0945 0.0099,0.0299 -0.01408,0.0663 0,0.0945 0.007,0.0141 0.03611,-0.0111 0.04725,0 0.01114,0.0111 0,0.0315 0,0.0472 0,0.0315 -0.01408,0.0663 0,0.0945 0.007,0.0141 0.03316,-0.007 0.04725,0 0.01992,0.01 0.03728,0.0273 0.04725,0.0472 0.01408,0.0282 -0.02228,0.0722 0,0.0945 0.01114,0.0111 0.03611,-0.0111 0.04725,0 0.09775,0.0977 -0.149384,-0.004 0.04725,0.0945 0.01408,0.007 0.03611,-0.0111 0.04725,0 0.01114,0.0111 0,0.0315 0,0.0472 0,0.0223 -0.0021,0.23409 0,0.23623 0.01114,0.0111 0.03316,-0.007 0.04725,0 0.01992,0.01 0.0315,0.0315 0.04725,0.0472 0.01574,0.0157 0.03728,0.0273 0.04725,0.0473 0.007,0.0141 -0.01114,0.0361 0,0.0472 0.01114,0.0111 0.03316,-0.007 0.04725,0 0.01992,0.01 0.02733,0.0373 0.04725,0.0472 0.01058,0.005 0.17776,2e-5 0.188989,0 l 0.283518,-4.1e-4 c -0.04721,-0.0318 -0.08788,-0.0767 -0.141738,-0.0945 -0.01495,-0.005 -0.01114,0.0361 0,0.0472 0.01114,0.0111 0.03317,-0.007 0.04725,0 0.01993,0.01 0.03151,0.0315 0.04725,0.0472 0.01575,0.0158 0.03725,0.0274 0.04725,0.0473 0.007,0.014 -0.01114,0.0361 0,0.0472 0.02362,0.0236 0.11811,-0.0236 0.14174,0 0.02228,0.0223 -0.01408,0.0663 0,0.0945 0.05223,0.1044 0.02932,0.0146 0.09449,0.0472 0.10447,0.0522 0.01467,0.0293 0.04725,0.0945 0.01993,0.0398 0.07458,0.0546 0.0945,0.0945 0.01633,0.0326 -0.01659,0.21963 0,0.23623 0.01114,0.0111 0.03317,-0.007 0.04725,0 0.01254,0.006 0.13544,0.12924 0.14174,0.14174 0.007,0.0141 -0.01114,0.0362 0,0.0473 0.01114,0.0111 0.03611,-0.0111 0.04725,0 0.01114,0.0111 -0.007,0.0331 0,0.0472 0.01,0.0199 0.03725,0.0273 0.04725,0.0472 0.007,0.0141 0,0.0316 0,0.0473 v 0.0472 0.18898 c 0,0.0115 0.0016,0.13975 0,0.14175 -0.01114,0.0111 -0.03151,0 -0.04725,0 h -0.377976 c -0.03149,0 -0.06632,0.0141 -0.09449,0 -0.01408,-0.007 0.01114,-0.0361 0,-0.0472 -0.01114,-0.0111 -0.03151,0 -0.04725,0 h -0.04725 c -0.01988,0 -0.269432,0.007 -0.283482,0 -0.03984,-0.0199 -0.05465,-0.0746 -0.09449,-0.0945 -0.02563,-0.0128 -0.176049,0.0129 -0.188989,0 -0.01114,-0.0111 0.01114,-0.0361 0,-0.0472 -0.02227,-0.0223 -0.07221,0.0223 -0.09449,0 -0.09776,-0.0975 0.149381,0.004 -0.04725,-0.0945 -0.02818,-0.0141 -0.07222,0.0223 -0.0945,0 -0.01114,-0.0111 0.01114,-0.0361 0,-0.0472 -0.0249,-0.0249 -0.06519,-0.0277 -0.09449,-0.0472 -0.01853,-0.0124 -0.02733,-0.0373 -0.04725,-0.0473 -0.02817,-0.0141 -0.07221,0.0223 -0.09449,0 -0.01114,-0.0111 0.007,-0.0331 0,-0.0472 -0.01,-0.0199 -0.03725,-0.0273 -0.04725,-0.0472 -0.02183,-0.0437 0.03305,-0.15589 0,-0.18899 -0.02227,-0.0223 -0.06461,0.01 -0.09449,0 -0.02114,-0.007 -0.02733,-0.0372 -0.04725,-0.0472 -0.02817,-0.0141 -0.07221,0.0223 -0.09449,0 -0.01114,-0.0112 0.01114,-0.0362 0,-0.0473 -0.0097,-0.01 -0.123013,0.009 -0.141743,0 -0.01992,-0.01 -0.03151,-0.0315 -0.04725,-0.0472 -0.01575,-0.0157 -0.03725,-0.0273 -0.04725,-0.0472 -0.007,-0.014 0.01114,-0.0361 0,-0.0472 -0.01114,-0.0111 -0.03317,0.007 -0.04725,0 -0.05416,-0.0271 -0.06572,-0.0986 -0.09449,-0.14174 -0.01236,-0.0185 -0.03151,-0.0315 -0.04725,-0.0472 -0.01575,-0.0157 -0.02733,-0.0372 -0.04725,-0.0472 -0.01409,-0.007 -0.03611,0.0111 -0.04725,0 -0.02363,-0.0236 0.02363,-0.11814 0,-0.14174 -0.02227,-0.0223 -0.07221,0.0223 -0.09449,0 -0.01114,-0.0112 0.01114,-0.0362 0,-0.0473 -0.01114,-0.0111 -0.03317,0.007 -0.04725,0 -0.01992,-0.01 -0.02873,-0.0349 -0.04725,-0.0472 -0.02931,-0.0195 -0.0696,-0.0223 -0.0945,-0.0472 -0.01138,-0.0114 0.01138,-0.17759 0,-0.18899 -0.06299,-0.0629 -0.04533,0.10028 -0.09449,-0.0472 -0.01071,-0.0321 0.01252,-0.21123 0,-0.23623 -0.01,-0.0199 -0.03151,-0.0315 -0.04725,-0.0472 -0.01575,-0.0157 -0.03151,-0.0315 -0.04725,-0.0472 -0.02487,-0.0249 -0.116502,-0.12915 -0.141742,-0.14175 -0.01409,-0.007 -0.03611,0.0111 -0.04725,0 -0.01114,-0.0111 0.01114,-0.0361 0,-0.0472 -0.02227,-0.0223 -0.07221,0.0223 -0.09449,0 -0.02228,-0.0223 0.02228,-0.0722 0,-0.0945 -0.01114,-0.0111 -0.03317,-0.007 -0.04725,0 -0.07204,0.036 -0.04725,0.12419 -0.04725,0.18899 v 0.89769 0.23624 c 0,0.0157 -0.01574,0.0472 0,0.0472 0.01574,0 0.01114,-0.0361 0,-0.0472 -0.01114,-0.0111 -0.03611,0.0111 -0.04725,0 -0.01114,-0.0111 0.007,-0.0331 0,-0.0472 -0.02835,-0.0567 -0.11339,-0.085 -0.14174,-0.14174 -0.01408,-0.0282 0.02228,-0.0722 0,-0.0945 -0.0058,-0.006 -0.12616,0.0194 -0.09449,-0.0472 -0.01954,-0.0293 -0.03151,-0.063 -0.04725,-0.0945 0,-0.0157 0.007,-0.0331 0,-0.0472 -0.0983,-0.19668 0.0033,0.0505 -0.0945,-0.0473 -0.01114,-0.0111 0.007,-0.0331 0,-0.0472 -0.01,-0.0199 -0.03489,-0.0287 -0.04725,-0.0472 -0.01954,-0.0293 -0.02235,-0.0696 -0.04725,-0.0945 -0.01114,-0.0111 -0.03611,0.0111 -0.04725,0 -4.5e-5,-4e-5 7.2e-5,-0.14152 0,-0.14174 -0.007,-0.0211 -0.03735,-0.0273 -0.04725,-0.0472 -0.007,-0.014 0.01114,-0.0361 0,-0.0472 -0.02228,-0.0223 -0.07222,0.0223 -0.0945,0 -0.01114,-0.0111 0.01114,-0.0361 0,-0.0472 -0.01114,-0.0111 -0.03611,0.0111 -0.04725,0 -0.02228,-0.0223 0.02228,-0.0722 0,-0.0945 -0.02227,-0.0223 -0.08041,0.0282 -0.09449,0 -0.01408,-0.0282 0,-0.063 0,-0.0945 0,-0.0157 0.01114,-0.0361 0,-0.0472 -0.01114,-0.0111 -0.03611,0.0111 -0.04725,0 -0.01114,-0.0111 0.007,-0.0331 0,-0.0472 -0.01992,-0.0398 -0.07457,-0.0547 -0.09449,-0.0945 -0.02529,-0.0506 0.04091,-0.10079 -0.04725,-0.18899 -0.09779,-0.0978 0.0038,0.14933 -0.09449,-0.0473 -0.01408,-0.0282 0.01408,-0.0663 0,-0.0945 -0.01,-0.02 -0.03151,-0.0316 -0.04725,-0.0473 -0.01575,-0.0157 -0.03151,-0.0315 -0.04725,-0.0472 -0.02487,-0.0249 -0.116503,-0.12914 -0.141743,-0.14174 -0.02817,-0.0141 -0.06632,0.0141 -0.09449,0 -0.06559,-0.0328 -0.04725,-0.084 -0.04725,-0.14174 0,-0.0157 0.01114,-0.0361 0,-0.0472 -0.01114,-0.0111 -0.03151,0 -0.04725,0 h -0.236236 -0.04725 c -0.01575,0 -0.03317,-0.007 -0.04725,0 -0.01992,0.01 -0.02733,0.0372 -0.04725,0.0472 -0.06518,0.0325 -0.04227,-0.0573 -0.0945,0.0472 -0.007,0.014 0.007,0.0331 0,0.0472 -0.01,0.0199 -0.03735,0.0273 -0.04725,0.0472 -0.007,0.014 0.01114,0.0361 0,0.0472 -0.09779,0.0977 0.0038,-0.14943 -0.09449,0.0472 -0.007,0.014 0.01114,0.0361 0,0.0472 -0.01114,0.0111 -0.03611,-0.0111 -0.04725,0 -0.01114,0.0111 0.01114,0.0361 0,0.0472 -0.0321,0.0321 -0.09396,-0.0483 -0.141742,0.0473 -0.007,0.014 0.007,0.0331 0,0.0472 -0.01992,0.0398 -0.07457,0.0547 -0.09449,0.0945 -0.03259,0.0652 0.05722,0.0423 -0.04725,0.0945 -0.02817,0.0141 -0.07221,-0.0223 -0.09449,0 -0.02228,0.0223 0.01407,0.0663 0,0.0945 -0.0983,0.19659 0.0033,-0.0505 -0.0945,0.0472 -0.04015,0.0401 -0.06042,0.0963 -0.09449,0.14174 -0.01337,0.0179 -0.03151,0.063 -0.04725,0.0473 -0.02228,-0.0223 0,-0.063 0,-0.0945 0,-0.12704 0.06901,-0.0653 0.09449,-0.14174 0.01495,-0.0448 0,-0.0945 0,-0.14175 v -0.37797 -0.0472 c 0,-0.0157 0.01114,-0.0361 0,-0.0472 -0.0067,-0.007 -0.13204,-0.005 -0.14174,0 -0.01992,0.01 -0.02733,0.0372 -0.04725,0.0472 -0.01709,0.009 -0.203375,0 -0.236235,0 -0.01575,0 -0.03611,-0.0111 -0.04725,0 -0.06299,0.063 0.100224,0.0454 -0.04725,0.0945 -0.02989,0.01 -0.07222,-0.0223 -0.0945,0 -0.02228,0.0223 0.01408,0.0663 0,0.0945 -0.007,0.0141 -0.03151,0 -0.04725,0 h -0.236233 -0.04725 -1.55915 -0.377975 -0.04725 c -0.01575,0 -0.04725,-0.0157 -0.04725,0 0,0.0157 0.03151,0 0.04725,0 h 0.04725 c 0.01575,0 0.03611,0.0111 0.04725,0 0.01114,-0.0111 -0.007,-0.0331 0,-0.0472 0.09829,-0.19658 -0.0033,0.0506 0.09449,-0.0472 0.01114,-0.0111 -0.01114,-0.0361 0,-0.0472 0.02227,-0.0223 0.06632,0.0141 0.09449,0 0.03985,-0.0199 0.05224,-0.0804 0.0945,-0.0945 0.02707,-0.009 0.191883,0 0.236233,0 0.01575,0 0.03611,0.0111 0.04725,0 0.01114,-0.0111 -0.01114,-0.0361 0,-0.0472 0.01263,-0.0126 0.206095,0.0151 0.236235,0 0.03984,-0.0199 0.05465,-0.0746 0.09449,-0.0945 0.01409,-0.007 0.03317,0.007 0.04725,0 0.01992,-0.01 0.02733,-0.0372 0.04725,-0.0472 0.01409,-0.007 0.03611,0.0111 0.04725,0 0.01114,-0.0111 -0.01349,-0.0392 0,-0.0472 0.0727,-0.0437 0.157478,-0.0633 0.236218,-0.0949 l -10e-7,-0.0472 c 0,-0.0158 -0.01114,-0.0362 0,-0.0473 0.01114,-0.0111 0.03611,0.0111 0.04725,0 0.01114,-0.0111 -0.01114,-0.0361 0,-0.0472 0.01114,-0.0111 0.03318,0.007 0.04725,0 0.03984,-0.0199 0.05465,-0.0746 0.09449,-0.0945 0.01409,-0.007 0.03611,0.0111 0.04725,0 0.01114,-0.0111 -0.01114,-0.0361 0,-0.0472 0.01114,-0.0111 0.03317,0.007 0.04725,0 0.04187,-0.0209 0.09873,-0.11304 0.141743,-0.14174 0.0293,-0.0195 0.06108,-0.0361 0.09449,-0.0472 0.01494,-0.005 0.03611,0.0111 0.04725,0 0.01114,-0.0111 -0.01408,-0.0402 0,-0.0472 0.02818,-0.0141 0.06462,0.01 0.0945,0 0.02557,-0.009 0.110699,-0.12104 0.141739,-0.14174 0.0293,-0.0195 0.06519,-0.0277 0.09449,-0.0472 0.02003,-0.0134 0.131942,-0.12214 0.141742,-0.14174 0.007,-0.014 -0.01114,-0.0361 0,-0.0472 0.01114,-0.0111 0.03611,0.0111 0.04725,0 0.02489,-0.0249 0.02772,-0.0652 0.04725,-0.0945 0.01236,-0.0185 0.03735,-0.0273 0.04725,-0.0472 0.007,-0.0141 -0.007,-0.0332 0,-0.0473 0.02835,-0.0567 0.113393,-0.085 0.141743,-0.14174 0.007,-0.014 -0.01114,-0.0361 0,-0.0472 0.09779,-0.0978 -0.0038,0.14933 0.09449,-0.0473 0.01408,-0.0282 -0.01408,-0.0663 0,-0.0945 0.06953,-0.13875 0.04725,0.0733 0.04725,-0.14175 0.01795,-0.0538 0.12297,-0.0562 0.09449,-0.14174 0.0076,-0.0306 -0.0076,-0.0639 0,-0.0945 0.05704,-0.22814 0.02246,0.002 0.0945,-0.14174 0.007,-0.014 0,-0.0315 0,-0.0472 0,-0.0315 -0.0099,-0.0646 0,-0.0945 0.007,-0.0211 0.04025,-0.0261 0.04725,-0.0472 0.01992,-0.0598 -0.01992,-0.12919 0,-0.18899 0.072,-0.21604 0.03751,0.20015 0.09449,-0.14174 0.01034,-0.0621 -0.01236,-0.12719 0,-0.18899 0.0044,-0.0218 0.03489,-0.0287 0.04725,-0.0472 0.13757,-0.20639 -0.02094,0.0156 0.04725,-0.18899 0.01796,-0.0538 0.12298,-0.0562 0.0945,-0.14174 0.01852,-0.0741 -0.01852,-0.16214 0,-0.23624 0.04943,-0.19799 0.09231,0.009 0.14174,-0.18899 0.01172,-0.0469 -0.0163,-0.25088 0,-0.28348 0.0071,-0.0141 0.04025,0.0141 0.04725,0 0.02008,-0.0401 -0.01566,-0.18923 0,-0.23623 0.04915,-0.14743 0.03149,0.0158 0.09449,-0.0472 0.01114,-0.0112 0,-0.0316 0,-0.0473 0,-0.0329 -0.0085,-0.21913 0,-0.23623 0.01,-0.02 0.03735,-0.0274 0.04725,-0.0473 0.0082,-0.0165 0,-0.24878 0,-0.28348 v -0.0472 c 0,-0.0157 -0.01114,-0.0361 0,-0.0472 0.01114,-0.0111 0.03317,0.007 0.04725,0 0.10447,-0.0522 0.01466,-0.0293 0.04725,-0.0945 0.01992,-0.0398 0.07457,-0.0546 0.09449,-0.0945 0.0087,-0.0174 0,-0.24228 0,-0.28348 v -0.61421 -0.89769 -0.33073 -0.0945 c 0,-0.0315 0.01408,-0.0663 0,-0.0945 -0.007,-0.0141 -0.03611,0.0111 -0.04725,0 -0.01114,-0.0111 0,-0.0315 0,-0.0472 0,-0.0458 0.0094,-0.25528 0,-0.28348 -0.01114,-0.0334 -0.02772,-0.0652 -0.04725,-0.0945 -0.01236,-0.0185 -0.04025,-0.0261 -0.04725,-0.0472 -0.0099,-0.0299 0,-0.063 0,-0.0945 0,-0.0401 0.0078,-0.25209 0,-0.28349 -0.01709,-0.0683 -0.07222,-0.12218 -0.0945,-0.18898 -0.005,-0.015 0,-0.0316 0,-0.0473 v -0.23624 c 0,-0.0315 0.0076,-0.0639 0,-0.0945 -0.0085,-0.0342 -0.04225,-0.0596 -0.04725,-0.0945 -0.01114,-0.0779 0,-0.15753 0,-0.23623 0.01638,0.008 0.10051,0.0679 0.141743,0.0472 0.01992,-0.01 0.02733,-0.0373 0.04725,-0.0472 0.01408,-0.007 0.03316,0.007 0.04725,0 0.01992,-0.01 0.02871,-0.0349 0.04725,-0.0473 0.02379,-0.10409 0.0972,-0.025 0.141742,-0.0472 0.01992,-0.01 0.02612,-0.0402 0.04725,-0.0472 0.02988,-0.01 0.06461,0.01 0.09449,0 0.08251,-0.0275 0.03321,-0.13472 0.04725,-0.14174 0.01564,-0.008 0.199874,0 0.236236,0 h 0.519716 1.795388 0.377976 c 0.02127,0 0.127362,-0.007 0.14174,0 0.04325,0.0216 0.08299,0.10721 0.0945,0.14174 0.0091,0.0274 0,0.14804 -0.0945,0.19212"
         style="fill:#552200;fill-rule:evenodd;stroke:#000000;stroke-width:0.13229167;stroke-linecap:butt;stroke-linejoin:miter;stroke-miterlimit:4;stroke-dasharray:none;stroke-opacity:1" />
      <path
         inkscape:connector-curvature="0"
         id="path1607"
         d="m 33.899739,131.80078 c 0,0.30868 0,0.61736 0,0.92604 0,0.0551 0,0.11024 0,0.16537 0,0.011 -0.0078,0.0253 0,0.0331 0.01558,0.0156 0.05055,-0.0156 0.06615,0 0.01558,0.0156 -0.0099,0.0464 0,0.0661 0.06882,0.13764 -0.0024,-0.0354 0.06615,0.0331 0.01558,0.0156 -0.0099,0.0464 0,0.0661 0.007,0.0139 0.02442,0.0201 0.03307,0.0331 0.01368,0.0205 0.01939,0.0456 0.03307,0.0661 0.0087,0.013 0.02609,0.0191 0.03307,0.0331 0.0049,0.01 0,0.022 0,0.0331 0,0.011 0,0.022 0,0.0331 0,0.0551 0,0.11024 0,0.16537 0,0.0362 0.0033,0.13062 0,0.13229 -0.01971,0.01 -0.04642,-0.01 -0.06615,0 -0.0099,0.005 0.0049,0.0232 0,0.0331 -0.01394,0.0279 -0.0522,0.0383 -0.06615,0.0661 -0.0208,0.0416 0.0475,0.0661 -0.03307,0.0661"
         style="fill:none;fill-rule:evenodd;stroke:#000000;stroke-width:0.10583333;stroke-linecap:butt;stroke-linejoin:miter;stroke-miterlimit:4;stroke-dasharray:none;stroke-opacity:1" />
      <path
         inkscape:connector-curvature="0"
         id="path1609"
         d="m 35.520312,133.35521 c 0,0.48507 0,0.97014 0,1.45521 0,0.0882 0,0.17638 0,0.26458 0,0.0113 -0.006,0.11439 0,0.13229 0.02674,0.0802 0.0799,0.0881 0.09922,0.16537 0.0073,0.0291 -0.0098,0.17887 0,0.19843 0.01394,0.0279 0.0522,0.0383 0.06615,0.0661 0.0049,0.01 0,0.022 0,0.0331 0,0.0185 -0.0051,0.15023 0,0.16537 0.0049,0.0148 0.02204,0.022 0.03307,0.0331"
         style="fill:none;fill-rule:evenodd;stroke:#000000;stroke-width:0.10583333;stroke-linecap:butt;stroke-linejoin:miter;stroke-miterlimit:4;stroke-dasharray:none;stroke-opacity:1" />
      <path
         inkscape:connector-curvature="0"
         id="path1611"
         d="m 34.627343,135.67031 c -0.03307,0.0882 -0.06615,0.17639 -0.09922,0.26459 -0.03307,0.0882 -0.06943,0.17522 -0.09922,0.26458 -0.007,0.0209 0.007,0.0452 0,0.0661 -0.0078,0.0234 -0.02709,0.0422 -0.03307,0.0661 -0.0016,0.006 0.0021,0.1633 0,0.16537 -0.0441,0.0441 -0.03174,-0.0702 -0.06615,0.0331 -0.0052,0.0157 0,0.23492 0,0.26458"
         style="fill:none;fill-rule:evenodd;stroke:#000000;stroke-width:0.10583333;stroke-linecap:butt;stroke-linejoin:miter;stroke-miterlimit:4;stroke-dasharray:none;stroke-opacity:1" />
      <path
         inkscape:connector-curvature="0"
         id="path1613"
         d="m 33.80052,135.04193 c -0.01103,0.28663 -0.01188,0.57383 -0.03307,0.85989 -0.0011,0.0156 -0.02611,0.0191 -0.03307,0.0331 -0.0049,0.01 0.0035,0.0226 0,0.0331 -0.0078,0.0234 -0.02492,0.0429 -0.03307,0.0661 -0.0691,0.19743 -0.126127,0.39904 -0.198438,0.59532 -0.04015,0.10896 -0.01799,-0.0151 -0.06615,0.0331 -0.0078,0.008 0.0049,0.0232 0,0.0331 -0.007,0.0139 -0.02611,0.0191 -0.03307,0.0331 -0.0049,0.01 0.0049,0.0232 0,0.0331 -0.01323,0.0265 -0.05292,0.0397 -0.06614,0.0661 -0.0049,0.01 0.0078,0.0253 0,0.0331 -0.0078,0.008 -0.02527,-0.008 -0.03307,0 -0.0011,0.001 0,0.0912 0,0.0992"
         style="fill:none;fill-rule:evenodd;stroke:#000000;stroke-width:0.10583333;stroke-linecap:butt;stroke-linejoin:miter;stroke-miterlimit:4;stroke-dasharray:none;stroke-opacity:1" />
      <path
         inkscape:connector-curvature="0"
         id="path1615"
         d="m 33.105989,138.31615 c -0.06615,0.11024 -0.132291,0.22048 -0.198437,0.33072 -0.01103,0.011 -0.02463,0.0199 -0.03307,0.0331 -0.091,0.14155 -0.181094,0.28384 -0.264584,0.42995 -0.0055,0.01 0.0027,0.0224 0,0.0331 -0.0085,0.0338 -0.02461,0.0654 -0.03307,0.0992 -0.0027,0.0107 0.0078,0.0253 0,0.0331 -0.0078,0.008 -0.0232,-0.005 -0.03307,0 -0.05044,0.0252 -0.03307,0.0869 -0.03307,0.13229"
         style="fill:none;fill-rule:evenodd;stroke:#000000;stroke-width:0.10583333;stroke-linecap:butt;stroke-linejoin:miter;stroke-miterlimit:4;stroke-dasharray:none;stroke-opacity:1" />
      <path
         inkscape:connector-curvature="0"
         id="path1617"
         d="m 30.616054,140.04498 c 0.449537,0.19376 0.279916,0.18939 0.472487,0.18939 0.01103,0 0.0232,0.005 0.03307,0 0.137642,-0.0688 -0.03536,0.002 0.03307,-0.0661 0.01744,-0.0174 0.0441,-0.022 0.06615,-0.0331 0.0638,-0.0319 0.22067,-0.10093 0.264583,-0.1323 0.272182,-0.19441 -0.02458,-0.0373 0.165365,-0.13229"
         style="fill:none;fill-rule:evenodd;stroke:#000000;stroke-width:0.10583333;stroke-linecap:butt;stroke-linejoin:miter;stroke-miterlimit:4;stroke-dasharray:none;stroke-opacity:1" />
      <path
         inkscape:connector-curvature="0"
         id="path1621"
         d="m 32.113802,140.43281 c -0.07743,-0.12425 0.07889,-0.10438 0.09922,-0.16536 0.007,-0.0209 -0.01558,-0.0506 0,-0.0661 0.01558,-0.0156 0.04523,0.007 0.06615,0 0.0041,-0.001 0.09638,-0.0935 0.09922,-0.0992 0.0099,-0.0197 -0.01558,-0.0505 0,-0.0661 0.0078,-0.008 0.02527,0.008 0.03307,0 0.0078,-0.008 -0.0019,-0.0222 0,-0.0331 0.03138,-0.19869 0.06615,-0.39683 0.09923,-0.59525"
         style="fill:none;fill-rule:evenodd;stroke:#000000;stroke-width:0.10583333;stroke-linecap:butt;stroke-linejoin:miter;stroke-miterlimit:4;stroke-dasharray:none;stroke-opacity:1" />
      <path
         inkscape:connector-curvature="0"
         id="path1623"
         d="m 33.403645,139.4737 c 0,0.11024 0,0.22048 0,0.33073 0.01103,0.011 0.02814,0.0183 0.03307,0.0331 0.01778,0.0533 0.01529,0.11203 0.03307,0.16536 0.0049,0.0148 0.02814,0.0183 0.03307,0.0331 0.007,0.0209 -0.0099,0.0464 0,0.0661 0.0099,0.0197 0.05055,-0.0156 0.06615,0 0.0078,0.008 0,0.022 0,0.0331 0,0.0121 -0.0013,0.13096 0,0.13229 0.0078,0.008 0.02204,0 0.03307,0"
         style="fill:none;fill-rule:evenodd;stroke:#000000;stroke-width:0.10583333;stroke-linecap:butt;stroke-linejoin:miter;stroke-miterlimit:4;stroke-dasharray:none;stroke-opacity:1" />
      <path
         inkscape:connector-curvature="0"
         id="path1625"
         d="m 34.296614,139.04375 c 0.169606,0.40705 0.165365,0.25356 0.165365,0.42995 0,0.022 -0.007,0.0452 0,0.0661 0.0099,0.0296 0.0522,0.0383 0.06615,0.0661 0.0049,0.01 0,0.022 0,0.0331 0,0.022 -0.0053,0.0448 0,0.0661 0.006,0.0239 0.02709,0.0422 0.03307,0.0661 0.0053,0.0214 -0.0053,0.0448 0,0.0661 -0.05989,0.13837 0.0522,0.0383 0.06615,0.0661 0.0096,0.0192 -0.0097,0.17894 0,0.19843 0.007,0.0139 0.02609,0.0191 0.03307,0.0331 0.0099,0.0197 -0.0099,0.0464 0,0.0661 0.01323,0.0265 0.05292,0.0397 0.06615,0.0661 0.01323,0.0265 -0.01323,0.0728 0,0.0992 0.007,0.0139 0.02204,0.022 0.03307,0.0331 0,0.022 -0.0053,0.0447 0,0.0661 0.02061,0.0824 0.08836,0.0995 0.132292,0.16537 0.0061,0.009 -0.0035,0.0226 0,0.0331 0.0078,0.0234 0.01939,0.0456 0.03307,0.0661 0.0087,0.013 0.01913,0.0261 0.03307,0.0331 0.0099,0.005 0.02814,-0.01 0.03307,0 0.0099,0.0197 0,0.0441 0,0.0661 0,0.011 -0.0078,0.0253 0,0.0331 0.0078,0.008 0.02814,-0.01 0.03307,0 0.0099,0.0197 -0.007,0.0452 0,0.0661 0.0049,0.0148 0.02204,0.022 0.03307,0.0331 0.01103,0.011 0.02204,0.022 0.03307,0.0331"
         style="fill:none;fill-rule:evenodd;stroke:#000000;stroke-width:0.10583333;stroke-linecap:butt;stroke-linejoin:miter;stroke-miterlimit:4;stroke-dasharray:none;stroke-opacity:1" />
      <path
         inkscape:connector-curvature="0"
         id="path1627"
         d="m 35.024218,137.58854 c 0.0441,0.0882 0.08819,0.17639 0.132292,0.26458 0,0.0331 -0.008,0.0671 0,0.0992 0.02537,0.10147 0.0717,0.19676 0.09922,0.29766 0.0058,0.0213 -0.0099,0.0464 0,0.0661 0.01394,0.0279 0.04885,0.0402 0.06615,0.0661 0.0061,0.009 -0.0024,0.12515 0,0.13229 0.0049,0.0148 0.02814,0.0183 0.03307,0.0331 0.01045,0.0314 0,0.0661 0,0.0992"
         style="fill:none;fill-rule:evenodd;stroke:#000000;stroke-width:0.10583333;stroke-linecap:butt;stroke-linejoin:miter;stroke-miterlimit:4;stroke-dasharray:none;stroke-opacity:1" />
      <path
         inkscape:connector-curvature="0"
         id="path1629"
         d="m 34.230468,137.65469 c -0.06791,0.8488 -0.06615,0.55033 -0.06615,0.89297 0,0.022 0.007,0.0452 0,0.0661 -0.04856,0.14567 -0.116808,0.28428 -0.165364,0.42995 -0.007,0.0209 -0.02204,0.0662 0,0.0662 0.10164,0 0.198437,-0.0441 0.297656,-0.0662"
         style="fill:none;fill-rule:evenodd;stroke:#000000;stroke-width:0.10583333;stroke-linecap:butt;stroke-linejoin:miter;stroke-miterlimit:4;stroke-dasharray:none;stroke-opacity:1" />
      <path
         inkscape:connector-curvature="0"
         id="path1631"
         d="m 35.884114,140.36667 c 0.05512,0.13229 0.117163,0.2619 0.165365,0.39687 0.0074,0.0208 -0.0046,0.0446 0,0.0661 0.02857,0.13333 0.07065,0.26354 0.09922,0.39687 0.02756,0.12862 -0.04134,0 0,0.16537 0.0038,0.0151 0.02814,0.0183 0.03307,0.0331 0.0075,0.0225 -0.0088,0.14783 0,0.16536 0.01323,0.0265 0.05292,0.0397 0.06615,0.0661 0.0049,0.01 -0.0049,0.0232 0,0.0331 0.007,0.0139 0.02609,0.0191 0.03307,0.0331 0.0049,0.01 -0.0049,0.0232 0,0.0331 0.007,0.0139 0.02609,0.0191 0.03307,0.0331 0.05378,0.10757 0.0084,0.0787 0.06615,0.16537 0.0173,0.0259 0.04744,0.0412 0.06615,0.0661 0.02384,0.0318 0.0423,0.0674 0.06615,0.0992 0.0093,0.0125 0.02814,0.0183 0.03307,0.0331 0.007,0.0209 -0.0099,0.0464 0,0.0661 0.01394,0.0279 0.0522,0.0383 0.06615,0.0661 0.0099,0.0197 -0.0053,0.0447 0,0.0661 0.006,0.0239 0.02527,0.0428 0.03307,0.0661 0.0035,0.0104 -0.0035,0.0226 0,0.0331 0.01558,0.0468 0.0441,0.0882 0.06615,0.13229"
         style="fill:none;fill-rule:evenodd;stroke:#000000;stroke-width:0.10583333;stroke-linecap:butt;stroke-linejoin:miter;stroke-miterlimit:4;stroke-dasharray:none;stroke-opacity:1" />
      <path
         inkscape:connector-curvature="0"
         id="path1633"
         d="m 35.024218,131.37083 c 0.01963,0.14049 -0.02005,0.28953 0,0.42995 0.0044,0.0309 0.0522,0.0383 0.06615,0.0661 0.005,0.0101 0,0.0843 0,0.0992 0,0.0772 0,0.15433 0,0.23151"
         style="fill:none;fill-rule:evenodd;stroke:#000000;stroke-width:0.10583333;stroke-linecap:butt;stroke-linejoin:miter;stroke-miterlimit:4;stroke-dasharray:none;stroke-opacity:1" />
      <path
         inkscape:connector-curvature="0"
         id="path1635"
         d="m 33.96588,133.75205 c 0.529621,0.76086 0.496099,0.45404 0.496099,0.95915 0,0.022 0.0082,0.0457 0,0.0661 0.114882,0.25923 -0.0783,0.0574 -0.09922,0.0992 -0.0099,0.0197 0.02114,0.0599 0,0.0661 -0.182576,0.0537 -0.374827,0.0661 -0.56224,0.0992"
         style="fill:none;fill-rule:evenodd;stroke:#000000;stroke-width:0.10583333;stroke-linecap:butt;stroke-linejoin:miter;stroke-miterlimit:4;stroke-dasharray:none;stroke-opacity:1" />
      <path
         inkscape:connector-curvature="0"
         id="path1647"
         d="m 13.824327,143.40811 -0.59516,5.42523"
         style="fill:none;fill-rule:evenodd;stroke:#000000;stroke-width:0.26458332px;stroke-linecap:butt;stroke-linejoin:miter;stroke-opacity:1" />
      <ellipse
         ry="1.3563927"
         rx="1.2628485"
         cy="128.19925"
         cx="16.697664"
         id="path1651"
         style="opacity:1;vector-effect:none;fill:#ffff00;fill-opacity:1;fill-rule:nonzero;stroke:#000000;stroke-width:0.079375;stroke-linecap:square;stroke-linejoin:miter;stroke-miterlimit:4;stroke-dasharray:none;stroke-dashoffset:0;stroke-opacity:1;paint-order:stroke fill markers" />
      <path
         inkscape:connector-curvature="0"
         id="path1671"
         d="m 15.200954,130.11691 c -0.191305,0.11159 -0.538543,0.25033 -0.701582,0.46772 -0.0094,0.0125 0,0.0312 0,0.0468 0,0.0156 0,0.0312 0,0.0468"
         style="fill:none;fill-rule:evenodd;stroke:#ffff00;stroke-width:0.26458332px;stroke-linecap:butt;stroke-linejoin:miter;stroke-opacity:1" />
      <path
         inkscape:connector-curvature="0"
         id="path1673"
         d="m 16.276714,130.39754 c 0.03118,0.0624 0.06765,0.12235 0.09354,0.18709 0.0058,0.0145 -0.0034,0.0316 0,0.0468 0.02789,0.1255 0.06565,0.24867 0.09354,0.37418 0.0068,0.0304 -0.01395,0.0657 0,0.0935 0.09733,0.19466 -0.0032,-0.05 0.09354,0.0468 0.01103,0.011 -0.007,0.0328 0,0.0468 0.0289,0.0578 0.04516,0.0468 0.09354,0.0468"
         style="fill:none;fill-rule:evenodd;stroke:#ffff00;stroke-width:0.26458332px;stroke-linecap:butt;stroke-linejoin:miter;stroke-opacity:1" />
      <path
         inkscape:connector-curvature="0"
         id="path1675"
         d="m 17.820196,130.16368 c 0,0.3642 -0.03742,0.0842 0.280632,0.56127 0.0086,0.013 -0.007,0.0328 0,0.0468 0.0099,0.0197 0.02883,0.034 0.04677,0.0468 0.298767,0.2134 0.213691,0.18709 0.467721,0.18709"
         style="fill:none;fill-rule:evenodd;stroke:#ffff00;stroke-width:0.26458332px;stroke-linecap:butt;stroke-linejoin:miter;stroke-opacity:1" />
      <path
         inkscape:connector-curvature="0"
         id="path1677"
         d="m 18.56855,128.85406 c 0.274179,0.54836 -0.01501,0.10942 0.140317,0.18709 0.01972,0.01 0.03118,0.0312 0.04677,0.0468 0.01559,0.0156 0.03691,0.0271 0.04677,0.0468 0.007,0.0139 -0.01103,0.0358 0,0.0468 0.02205,0.022 0.06565,-0.0139 0.09354,0 0.05543,0.0277 0.03812,0.0658 0.09354,0.0936 0.03742,0.0187 0.102898,-0.0187 0.140316,0 0.10646,0.10646 -0.0097,0.0123 0.09354,0.0468 0.33879,0.11293 -0.07374,-0.0135 0.140316,0.0935 0.02789,0.0139 0.06396,-0.01 0.09354,0 0.338791,0.11293 -0.07374,-0.0135 0.140317,0.0935 0.01423,0.007 0.119252,0 0.140316,0"
         style="fill:none;fill-rule:evenodd;stroke:#ffff00;stroke-width:0.26458332px;stroke-linecap:butt;stroke-linejoin:miter;stroke-opacity:1" />
      <path
         inkscape:connector-curvature="0"
         id="path1679"
         d="m 18.56855,127.59121 c 0.148847,-0.33422 0.37726,-0.0475 0.561266,-0.0936 0.08465,0.0282 0.08699,-0.0758 0.140317,-0.0935 0.02139,-0.007 0.166276,0.0104 0.187088,0 0.115593,-0.0578 -0.01615,-0.0468 0.09354,-0.0468"
         style="fill:none;fill-rule:evenodd;stroke:#ffff00;stroke-width:0.26458332px;stroke-linecap:butt;stroke-linejoin:miter;stroke-opacity:1" />
      <path
         inkscape:connector-curvature="0"
         id="path1681"
         d="m 17.446018,126.51545 c 0.165109,-0.10493 0.176343,-0.0936 0.327405,-0.0936 0.01559,0 0.03283,0.007 0.04677,0 0.01972,-0.01 0.02705,-0.0369 0.04677,-0.0468 0.02789,-0.0139 0.07149,0.022 0.09354,0 0.01103,-0.011 -0.01103,-0.0357 0,-0.0468 0.01103,-0.011 0.03118,0 0.04677,0 0.01559,0 0.03118,0 0.04677,0"
         style="fill:none;fill-rule:evenodd;stroke:#ffff00;stroke-width:0.26458332px;stroke-linecap:butt;stroke-linejoin:miter;stroke-opacity:1" />
    </g>
    <path
       style="fill:#ff0000;fill-rule:evenodd;stroke:#ff0000;stroke-width:0.79375;stroke-linecap:butt;stroke-linejoin:miter;stroke-opacity:1;stroke-miterlimit:4;stroke-dasharray:none"
       d="M 7.9375,61.520832 148.16667,117.08333"
       id="path1767"
       inkscape:connector-curvature="0" />
    <path
       style="fill:#ff0000;fill-rule:evenodd;stroke:#ff0000;stroke-width:0.79375;stroke-linecap:butt;stroke-linejoin:miter;stroke-opacity:1;stroke-miterlimit:4;stroke-dasharray:none"
       d="M 148.16667,61.520831 7.9375,117.08333"
       id="path1769"
       inkscape:connector-curvature="0" />
  </g>
</svg>
