<?xml version="1.0" encoding="UTF-8" standalone="no"?>
<!-- Created with Inkscape (http://www.inkscape.org/) -->

<svg
   width="5.7028046mm"
   height="5.4504805mm"
   viewBox="0 0 5.7028046 5.4504805"
   version="1.1"
   id="svg201"
   xml:space="preserve"
   inkscape:version="1.2.2 (732a01da63, 2022-12-09)"
   sodipodi:docname="imgMode.svg"
   xmlns:inkscape="http://www.inkscape.org/namespaces/inkscape"
   xmlns:sodipodi="http://sodipodi.sourceforge.net/DTD/sodipodi-0.dtd"
   xmlns="http://www.w3.org/2000/svg"
   xmlns:svg="http://www.w3.org/2000/svg"><sodipodi:namedview
     id="namedview203"
     pagecolor="#ffffff"
     bordercolor="#666666"
     borderopacity="1.0"
     inkscape:showpageshadow="2"
     inkscape:pageopacity="0.0"
     inkscape:pagecheckerboard="0"
     inkscape:deskcolor="#d1d1d1"
     inkscape:document-units="mm"
     showgrid="false"
     inkscape:zoom="13.455443"
     inkscape:cx="12.337015"
     inkscape:cy="9.9587949"
     inkscape:window-width="891"
     inkscape:window-height="1041"
     inkscape:window-x="127"
     inkscape:window-y="0"
     inkscape:window-maximized="1"
     inkscape:current-layer="layer1" /><defs
     id="defs198" /><g
     inkscape:label="Ebene 1"
     inkscape:groupmode="layer"
     id="layer1"
     transform="translate(-87.758769,-60.198486)"><path
       style="font-variation-settings:normal;opacity:1;vector-effect:none;fill:#a8d4ff;fill-opacity:1;fill-rule:evenodd;stroke:none;stroke-width:0.144;stroke-linecap:butt;stroke-linejoin:miter;stroke-miterlimit:4;stroke-dasharray:none;stroke-dashoffset:0;stroke-opacity:1;-inkscape-stroke:none;stop-color:#000000;stop-opacity:1"
       d="m 88.420171,63.386449 0.01067,-2.846713 3.231981,-0.0214 0.02141,3.017943 -3.264092,-0.139129"
       id="path2017" /><path
       style="font-variation-settings:normal;opacity:1;vector-effect:none;fill:#552200;fill-opacity:1;fill-rule:evenodd;stroke:none;stroke-width:0.144;stroke-linecap:butt;stroke-linejoin:miter;stroke-miterlimit:4;stroke-dasharray:none;stroke-dashoffset:0;stroke-opacity:1;-inkscape-stroke:none;stop-color:#000000;stop-opacity:1"
       d="m 88.430873,63.416647 0.50299,-0.395972 0.545799,-0.588605 0.38527,0.05351 0.438778,0.09632 0.417375,0.01067 0.385269,0.524395 0.385269,0.27825 0.214039,0.128422 -0.149828,0.05351 -2.322317,-0.04281 -0.824048,-0.05351 0.01067,-0.06421"
       id="path1909" /><path
       style="font-variation-settings:normal;opacity:1;vector-effect:none;fill:none;fill-opacity:1;fill-rule:evenodd;stroke:none;stroke-width:0.215998;stroke-linecap:square;stroke-linejoin:miter;stroke-miterlimit:4;stroke-dasharray:none;stroke-dashoffset:0;stroke-opacity:1;-inkscape-stroke:none;stop-color:#000000;stop-opacity:1"
       d="m 88.441575,63.266819 c 0.04994,0 0.09988,0 0.149827,0 0.01427,0 0.02896,0.0035 0.04281,0 0.01548,-0.0039 0.028,-0.01547 0.04281,-0.0214 0.02094,-0.0084 0.04327,-0.01302 0.06421,-0.0214 0.01481,-0.0059 0.02767,-0.01636 0.04281,-0.0214 0.0067,-0.0023 0.01427,0 0.0214,0 0.01427,0 0.02854,0 0.04281,0 0.02854,0 0.05708,0 0.08561,0 0.01478,0 0.07911,-0.0033 0.08562,0 0.009,0.0044 0.01237,0.01689 0.0214,0.0214 0.02018,0.01009 0.04487,0.0098 0.06421,0.0214 0.0173,0.0103 0.0255,0.03242 0.04281,0.04281 0.01934,0.01161 0.04403,0.01131 0.06421,0.0214 0.02301,0.0115 0.04363,0.02738 0.06421,0.04281 0.0081,0.0061 0.01237,0.01689 0.0214,0.0214 0.0064,0.0032 0.01546,-0.0039 0.0214,0 0.01679,0.01118 0.02475,0.03379 0.04281,0.04281 0.01277,0.0064 0.02956,-0.0054 0.04281,0 0.02389,0.0096 0.04281,0.02854 0.06421,0.04281 0.0214,0.01427 0.04603,0.02462 0.06421,0.04281 0.01128,0.01128 0.01119,0.03055 0.0214,0.04281 0.02584,0.031 0.05575,0.05846 0.08561,0.08561 0.08754,0.07958 0.174368,0.156326 0.27825,0.214037 0.01972,0.01096 0.04327,0.01302 0.06421,0.0214 0.05045,0.02018 0.09938,0.04403 0.149828,0.06421 0.0566,0.02264 0.114633,0.04157 0.17123,0.06421 0.09226,0.0369 0.180531,0.08447 0.27825,0.10702 0.04916,0.01134 0.100356,0.01152 0.149827,0.0214 0.02213,0.0044 0.04196,0.0177 0.06421,0.02141 0.02112,0.0035 0.04281,0 0.06421,0 0.06421,0 0.128423,0 0.192635,0 0.01723,0 0.07218,-0.0044 0.08561,0 0.01513,0.005 0.02953,0.01255 0.04281,0.0214 0.0084,0.0056 0.01183,0.01821 0.0214,0.0214 0.02031,0.0067 0.04433,-0.008 0.06421,0 0.02854,0.01427 0.05709,0.02854 0.08561,0.04281 0.0071,0.01427 0.0082,0.03397 0.0214,0.04281 0.02375,0.01583 0.06187,-0.01582 0.08561,0 0.01327,0.0088 0.01009,0.03153 0.02141,0.04281 0.01128,0.01128 0.03152,0.01009 0.04281,0.02141 0.005,0.005 0,0.01427 0,0.0214 0.01427,0 0.02927,-0.0044 0.04281,0 0.04663,-0.0081 0.0071,0.03567 0.0214,0.04281 0.01276,0.0064 0.02927,-0.0044 0.04281,0 0.07935,0.02645 -0.02609,0.0214 0.04281,0.0214"
       id="path511" /><path
       style="font-variation-settings:normal;opacity:1;vector-effect:none;fill:#ffffff;fill-opacity:1;fill-rule:evenodd;stroke:none;stroke-width:0.144;stroke-linecap:butt;stroke-linejoin:miter;stroke-miterlimit:4;stroke-dasharray:none;stroke-dashoffset:0;stroke-opacity:1;-inkscape-stroke:none;stop-color:#000000;stop-opacity:1"
       d="m 89.533172,62.348361 0.599307,-0.759837 0.192634,0.428078 0.38527,0.545797 -0.428077,0.04281 -0.577904,-0.171232 -0.181933,-0.06421"
       id="path2019" /><path
       style="font-variation-settings:normal;opacity:1;fill:none;fill-opacity:1;fill-rule:evenodd;stroke:#000000;stroke-width:0.100799;stroke-linecap:square;stroke-linejoin:miter;stroke-miterlimit:4;stroke-dasharray:none;stroke-dashoffset:0;stroke-opacity:1;stop-color:#000000;stop-opacity:1"
       d="m 88.420171,63.480858 c 0.156219,-0.223713 0.388739,-0.355766 0.599308,-0.513692 0.312601,-0.234451 0.994567,-1.332034 1.113,-1.391251 0.04215,-0.02108 0.157597,0.431303 0.363866,0.706328 0.329585,0.439448 0.713256,1.104754 1.209317,1.203966"
       id="path525"
       sodipodi:nodetypes="csscc" /><path
       style="font-variation-settings:normal;opacity:1;fill:none;fill-opacity:1;fill-rule:evenodd;stroke:#000000;stroke-width:0.100799;stroke-linecap:square;stroke-linejoin:miter;stroke-miterlimit:4;stroke-dasharray:none;stroke-dashoffset:0;stroke-opacity:1;stop-color:#000000;stop-opacity:1"
       d="m 89.533172,62.410666 c 0.32121,0.0341 0.843829,0.233626 1.155808,0.171234"
       id="path527"
       sodipodi:nodetypes="cc" /><path
       style="font-variation-settings:normal;opacity:1;vector-effect:none;fill:#008000;fill-opacity:1;fill-rule:evenodd;stroke:none;stroke-width:0.144;stroke-linecap:butt;stroke-linejoin:miter;stroke-miterlimit:4;stroke-dasharray:none;stroke-dashoffset:0;stroke-opacity:1;-inkscape-stroke:none;stop-color:#000000;stop-opacity:1"
       d="m 88.430873,63.472063 0.01067,0.620712 3.210577,-0.01067 0.01067,-0.524395 -0.909665,0.04281 -1.423355,-0.04281 z"
       id="path2021" /><path
       style="font-variation-settings:normal;opacity:1;fill:none;fill-opacity:1;fill-rule:evenodd;stroke:#000000;stroke-width:0.100799;stroke-linecap:square;stroke-linejoin:miter;stroke-miterlimit:4;stroke-dasharray:none;stroke-dashoffset:0;stroke-opacity:1;stop-color:#000000;stop-opacity:1"
       d="m 88.495085,63.49156 c 0.32121,0.0341 2.823685,0.137309 3.135664,0.07493"
       id="path1907"
       sodipodi:nodetypes="cc" /><rect
       style="opacity:1;fill:none;stroke:#550000;stroke-width:0.217439;stroke-linecap:round;stroke-linejoin:round;stroke-dasharray:none;paint-order:stroke fill markers;stop-color:#000000"
       id="rect383"
       width="3.2747893"
       height="3.5958469"
       x="88.420158"
       y="60.507633" /><circle
       style="opacity:1;fill:#ffcc00;stroke:none;stroke-width:0.217438;stroke-linecap:round;stroke-linejoin:round;stroke-dasharray:none;paint-order:stroke fill markers;stop-color:#000000"
       id="path2015"
       cx="90.945816"
       cy="61.203255"
       r="0.37456736" /><path
       style="font-variation-settings:normal;opacity:1;fill:none;fill-opacity:1;fill-rule:evenodd;stroke:#000000;stroke-width:0.0512637;stroke-linecap:butt;stroke-linejoin:miter;stroke-miterlimit:4;stroke-dasharray:none;stroke-dashoffset:0;stroke-opacity:1;stop-color:#000000;stop-opacity:1"
       d="m 90.448497,62.814206 0.37837,0.559987"
       id="path2749" /><path
       style="font-variation-settings:normal;opacity:1;fill:none;fill-opacity:1;fill-rule:evenodd;stroke:#000000;stroke-width:0.0512637;stroke-linecap:butt;stroke-linejoin:miter;stroke-miterlimit:4;stroke-dasharray:none;stroke-dashoffset:0;stroke-opacity:1;stop-color:#000000;stop-opacity:1"
       d="m 90.176069,62.814206 -0.06054,0.544853"
       id="path2751" /><path
       style="font-variation-settings:normal;opacity:1;fill:none;fill-opacity:1;fill-rule:evenodd;stroke:#000000;stroke-width:0.0512637;stroke-linecap:butt;stroke-linejoin:miter;stroke-miterlimit:4;stroke-dasharray:none;stroke-dashoffset:0;stroke-opacity:1;stop-color:#000000;stop-opacity:1"
       d="m 89.76743,62.783935 -0.211888,0.317832 -0.272426,0.211887"
       id="path2753" /><g
       id="path2755"><path
         style="color:#000000;fill:#000000;fill-rule:evenodd;-inkscape-stroke:none"
         d="m 92.617187,60.695312 v 3.648438 h 0.142579 v -3.648438 z"
         id="path3871" /><g
         id="g3857"><path
           style="color:#000000;fill:#000000;-inkscape-stroke:none"
           d="m 92.306641,63.896484 -0.101563,0.101563 0.482422,0.482422 0.484375,-0.482422 -0.101563,-0.101563 -0.382812,0.38086 z"
           id="path3865" /><path
           style="color:#000000;fill:#000000;-inkscape-stroke:none"
           d="M 92.306641,61.09816 92.205078,60.996598 92.6875,60.512223 93.171875,60.996598 93.070312,61.09816 92.6875,60.717301 Z"
           id="path3859" /></g></g><g
       id="path3006"><path
         style="color:#000000;fill:#000000;fill-rule:evenodd;-inkscape-stroke:none"
         d="m 88.472656,64.974609 v 0.144532 h 3.648438 v -0.144532 z"
         id="path3897" /><g
         id="g3883"><path
           style="color:#000000;fill:#000000;-inkscape-stroke:none"
           d="m 88.818359,64.564453 -0.482422,0.482422 0.482422,0.482422 0.101563,-0.101563 -0.38086,-0.380859 0.38086,-0.380859 z"
           id="path3907" /><path
           style="color:#000000;fill:#000000;-inkscape-stroke:none"
           d="m 91.819808,64.564453 0.484375,0.482422 -0.484375,0.482422 -0.101562,-0.101563 0.380859,-0.380859 -0.380859,-0.380859 z"
           id="path3904" /></g></g></g></svg>
